<svg width="72" height="72" viewBox="0 0 72 72" fill="none" xmlns="http://www.w3.org/2000/svg">
<path d="M43.7038 41.5274C42.8624 41.2274 42.0144 40.9224 41.1655 40.6109V33.5173C41.1655 33.5173 45.517 32.0986 45.517 25.005C47.9133 25.005 47.9133 19.3301 45.517 19.3301C45.517 18.6321 47.9742 13.3374 46.9676 9.399C45.517 3.7241 29.5612 3.7241 28.1107 9.399C20.8581 7.98027 25.2096 18.3795 25.2096 19.3301C22.8134 19.3301 22.8134 25.005 25.2096 25.005C25.2096 32.0986 29.5612 33.5173 29.5612 33.5173V40.6109C23.1122 42.9972 15.5056 45.341 11.6472 47.9514C6.17138 51.6562 6.17139 56.6157 6.17139 61.7143C15.5544 61.7143 16.9358 61.7143 35.3633 61.7143C37.5668 61.7143 39.4818 61.7143 41.1655 61.7143" stroke="#52AE30" stroke-width="2" stroke-linecap="round" stroke-linejoin="round"/>
<ellipse cx="52.9714" cy="52.9714" rx="8.74286" ry="8.74286" stroke="#52AE30" stroke-width="2" stroke-linecap="round" stroke-linejoin="round"/>
<path d="M65.8284 65.8285L60.6855 60.6857" stroke="#52AE30" stroke-width="2" stroke-linecap="round" stroke-linejoin="round"/>
</svg>
