<svg width="72" height="73" viewBox="0 0 72 73" fill="none" xmlns="http://www.w3.org/2000/svg">
<path d="M11.6955 27.7335C9.24412 27.786 7.11573 29.5909 7.13035 32.4726C7.1388 34.1459 8.43112 35.4686 9.69554 36.8639C11.6473 39.0175 12.2201 38.6375 12.1303 40.8204C12.0973 41.6193 10.7719 42.8672 9.34772 42.8639C7.23774 42.86 5.76294 40.8345 6.34774 38.3856H5.73905L4.13037 44.2117H4.73906C4.91695 43.6135 6.11936 43.6672 6.60861 43.6465C7.53016 43.6075 8.0561 44.3493 9.95641 44.3421C12.5565 44.3324 15.1116 42.6318 15.0868 39.4726C15.0741 37.8332 14.0681 36.7194 12.739 35.4291C10.6945 33.445 9.8975 32.4964 10.2608 30.9074C10.5613 29.5926 11.5006 29.2241 12.4347 29.2118C14.1843 29.1894 14.9374 31.0341 15.1738 32.9509H15.739L17.1737 28.0814H16.5651C16.4316 28.6566 15.7281 28.6855 15.1738 28.6466C14.924 28.6288 14.7831 28.6789 14.1738 28.4727C13.5242 28.2524 12.5 27.7166 11.6955 27.7335ZM17.8259 28.3857L17.652 29.3422C18.6125 29.3464 18.9591 29.3249 18.9563 31.1248V44.2117C18.9563 44.2117 19.2097 44.7861 19.565 44.2117C19.9206 43.6368 25.6954 34.0813 25.6954 34.0813V34.3857L25.6519 44.2117C25.6519 44.2117 26.0196 44.7861 26.3911 44.2117C26.7625 43.6368 34.7388 30.4727 34.7388 30.4727C35.1025 29.8194 35.3789 29.3647 36.304 29.3422L36.5214 28.3857H31.6084L31.4345 29.3422C32.51 29.3443 33.2263 29.1749 33.2606 29.8205C33.275 30.0912 33.226 30.3085 33.0432 30.6466L28.9997 37.2552L28.9128 37.1248V31.1248C28.9166 30.855 28.9181 30.589 28.9128 30.3857C28.8861 29.3669 29.166 29.3443 29.9562 29.3422L30.1302 28.3857H24.6519L24.478 29.3422C25.303 29.3647 25.6636 29.6039 25.6519 30.3422V31.69L22.1302 37.3856L21.9998 37.4726V31.0813C22 30.8564 22.0019 30.5035 21.9998 30.2553C21.9964 29.9071 21.9203 29.3443 22.9128 29.3422L23.1737 28.3857H17.8259ZM37.2605 28.3857L37.0866 29.3422C37.5356 29.3189 37.994 29.4886 38.0431 29.9944C38.0643 30.2147 37.9342 30.5379 37.8257 30.9509L34.8258 42.1247C34.6487 42.8669 33.7559 43.2644 32.5649 43.2552L32.391 44.2117H38.7823L38.9996 43.2552C37.8707 43.2323 37.9418 42.9197 37.9562 42.516C37.9651 42.2636 38.0871 42.0316 38.1736 41.7334L41.217 30.5161C41.5301 29.4669 42.2848 29.3655 43.4344 29.3422L43.6518 28.3857H37.2605ZM44.5213 28.3857L44.304 29.3422C45.2562 29.4143 46.6078 29.4038 46.2605 30.5161C46.1846 30.7593 46.268 30.6477 46.1735 31.0379L43.2605 41.9073C43.0338 42.9163 42.328 43.2322 41.4779 43.2552L41.217 44.2117H47.9996L48.2604 43.2552C46.777 43.2513 46.1771 43.0527 46.4778 41.9073C46.5418 41.6633 46.6633 41.2311 46.7387 40.8639L48.13 36.0813H48.4344C49.7602 36.0762 50.1345 36.2413 50.1735 36.9509C50.198 37.4067 50.1856 37.7765 50.2169 38.0378H50.9561L52.0865 33.3857L51.4778 33.2987C50.8508 34.9012 49.5136 34.9239 49.043 34.9074H48.4344L49.3909 31.0813C49.8068 29.6678 49.9418 29.7463 50.9995 29.7335C52.8422 29.7115 53.9359 30.0135 53.7821 32.6031H54.3908L55.5213 28.3857H44.5213ZM56.3908 28.3857L55.2169 32.6031H55.9126C56.2523 31.425 56.2613 31.227 56.956 30.6031C57.6694 29.9795 58.4359 29.7335 59.6517 29.7335L56.4778 41.3421C56.2579 43.2382 55.1669 43.2318 53.7821 43.2552L53.5647 44.2117H60.7386L60.9125 43.3421C59.9946 43.4272 59.4294 42.8237 59.6082 42.1247C59.6768 41.8558 59.8032 41.4565 59.9125 40.9943L62.869 29.7335C65.1209 29.7322 65.5723 30.6363 65.4342 32.6031H66.0864L67.2168 28.3857H56.3908ZM29.2171 42.4291C28.8403 42.4278 28.4441 42.8981 28.3476 43.4725C28.2507 44.047 28.4925 44.5147 28.8693 44.516C29.2457 44.5177 29.6421 44.047 29.7389 43.4725C29.8356 42.8986 29.5935 42.4308 29.2171 42.4291ZM40.3475 42.4291C39.9709 42.4278 39.5745 42.8981 39.4779 43.4725C39.3809 44.047 39.6231 44.5147 39.9996 44.516C40.3762 44.5177 40.7726 44.047 40.8692 43.4725C40.9662 42.8986 40.724 42.4308 40.3475 42.4291ZM49.9126 42.4291C49.536 42.4278 49.1396 42.8981 49.043 43.4725C48.9461 44.047 49.1447 44.5147 49.5213 44.516C49.8979 44.5177 50.2943 44.047 50.3909 43.4725C50.4878 42.8986 50.2892 42.4308 49.9126 42.4291ZM15.652 42.4726C15.2757 42.4708 14.9225 42.9416 14.8259 43.516C14.7292 44.0905 14.9279 44.5578 15.3042 44.5595C15.6808 44.5612 16.0772 44.0904 16.1738 43.516C16.2706 42.9416 16.0286 42.4742 15.652 42.4726ZM62.6951 42.4726C62.3185 42.4713 61.9221 42.9416 61.8256 43.516C61.7285 44.0905 61.9707 44.5582 62.3473 44.5595C62.7238 44.5612 63.1202 44.0905 63.2168 43.516C63.3138 42.942 63.0717 42.4743 62.6951 42.4726Z" fill="#52AE30"/>
<path d="M40.518 2.63488C42.5285 4.11839 44.5317 5.88341 46.4084 7.93371C47.5962 9.2314 48.6868 10.5912 49.668 12.0132H59.7746C54.6545 7.01793 47.9663 3.62248 40.518 2.63488ZM61.6242 13.9652H50.9218C52.7441 17.0235 54.0751 20.3486 54.8076 23.9419H67.7022C66.2558 20.2601 64.1866 16.8913 61.6242 13.9652ZM68.4007 25.8939H3.59917C2.52978 29.1987 1.95197 32.7248 1.95197 36.3857C1.95197 40.0667 2.53614 43.6113 3.61684 46.9318H68.383C69.4638 43.6113 70.048 40.0667 70.048 36.3857C70.048 32.7248 69.4701 29.1988 68.4007 25.8939ZM67.6808 48.8837H55.1147C54.3626 52.4859 53.0096 55.8106 51.1634 58.8604H61.5763C64.1481 55.9361 66.2264 52.5671 67.6808 48.8837ZM59.7185 60.8124H49.8893C48.9066 62.2131 47.8167 63.5511 46.6312 64.8268C44.721 66.8823 42.6813 68.645 40.635 70.1204C48.0091 69.1166 54.6325 65.7517 59.7185 60.8124ZM31.4288 70.1291C29.3893 68.6511 27.3561 66.887 25.4523 64.8321C24.2679 63.5538 23.1797 62.214 22.1994 60.8124H12.2812C17.3818 65.7661 24.0289 69.1361 31.4288 70.1291ZM10.4234 58.8604H20.9291C19.0866 55.8069 17.7413 52.4819 17.0016 48.8837H4.3191C5.77345 52.5671 7.85162 55.9361 10.4234 58.8604ZM4.29765 23.9419H16.7473C17.4961 20.344 18.8544 17.0191 20.7133 13.9652H10.3755C7.81316 16.8913 5.74398 20.2601 4.29765 23.9419ZM12.2251 12.0132H21.9944C23.0047 10.5809 24.1285 9.21286 25.3531 7.90895C27.2643 5.87387 29.3036 4.12328 31.3507 2.65248C23.955 3.66231 17.3151 7.04718 12.2251 12.0132ZM35.9997 0.385742C55.8817 0.385742 71.9999 16.5038 71.9999 36.3857C71.9999 56.2673 55.8816 72.3853 35.9997 72.3853C16.1179 72.3853 0 56.2674 0 36.3857C0 16.5037 16.1179 0.385742 35.9997 0.385742ZM53.1177 48.8837H36.9215V58.8604H48.855C50.8471 55.8284 52.3091 52.5039 53.1177 48.8837ZM47.4698 60.8124H36.9215V70.2201C37.0257 70.1598 37.1476 70.0878 37.2858 70.0043C37.8736 69.6494 38.5308 69.2208 39.2401 68.7181C41.2718 67.2783 43.305 65.5385 45.2013 63.498C46.0058 62.6323 46.7633 61.7371 47.4698 60.8124ZM18.9973 48.8837C19.7928 52.4992 21.2469 55.824 23.2354 58.8604H34.9695V48.8837H18.9973ZM24.6163 60.8124C25.3221 61.7393 26.0794 62.637 26.8841 63.5055C28.7683 65.5392 30.7886 67.2761 32.8073 68.7161C33.512 69.2188 34.1651 69.6479 34.7491 70.0034C34.8281 70.0515 34.9016 70.0957 34.9695 70.1362V60.8124H24.6163ZM18.744 23.9419H34.9695V13.9652H23.0254C21.0183 17.0025 19.5496 20.3272 18.744 23.9419ZM24.4186 12.0132H34.9695V2.6092C34.9125 2.64281 34.8519 2.67885 34.7878 2.71732C34.1926 3.07445 33.5273 3.50543 32.8094 4.01042C30.753 5.45681 28.6951 7.20175 26.776 9.24523C25.9383 10.1372 25.151 11.0598 24.4186 12.0132ZM52.8127 23.9419C52.0255 20.332 50.5886 17.007 48.624 13.9652H36.9215V23.9419H52.8127ZM47.263 12.0132C46.5499 11.0627 45.7837 10.1422 44.9685 9.25166C43.0952 7.20501 41.0866 5.45458 39.0796 4.00127C38.379 3.49394 37.7298 3.06062 37.1491 2.70128C37.0673 2.65067 36.9914 2.60424 36.9215 2.56199V12.0132H47.263Z" fill="#52AE30"/>
<path d="M70.5091 46.6715C71.4791 43.4124 71.9999 39.9599 71.9999 36.3858C71.9999 32.8117 71.4791 29.3592 70.5091 26.1001H1.4908C0.520855 29.3592 0 32.8117 0 36.3858C0 39.9599 0.520855 43.4124 1.4908 46.6715H70.5091Z" fill="#52AE30" fill-opacity="0.2"/>
</svg>
