<svg width="72" height="72" viewBox="0 0 72 72" fill="none" xmlns="http://www.w3.org/2000/svg">
<path fill-rule="evenodd" clip-rule="evenodd" d="M0.368164 28.5C0.368164 27.8787 0.875012 27.375 1.50024 27.375H34.5002C35.1255 27.375 35.6323 27.8787 35.6323 28.5V70.5C35.6323 71.1213 35.1255 71.625 34.5002 71.625H1.50024C0.875012 71.625 0.368164 71.1213 0.368164 70.5V28.5ZM2.63232 29.625V69.375H33.3682V29.625H2.63232Z" fill="#52AE30"/>
<path fill-rule="evenodd" clip-rule="evenodd" d="M7.5 28.5H28.5V10.5H7.5V28.5Z" fill="#52AE30" fill-opacity="0.2"/>
<path fill-rule="evenodd" clip-rule="evenodd" d="M6.36816 10.5C6.36816 9.87868 6.87501 9.375 7.50024 9.375H28.5002C29.1255 9.375 29.6323 9.87868 29.6323 10.5V28.5C29.6323 29.1213 29.1255 29.625 28.5002 29.625H7.50024C6.87501 29.625 6.36816 29.1213 6.36816 28.5V10.5ZM8.63232 11.625V27.375H27.3682V11.625H8.63232Z" fill="#52AE30"/>
<path fill-rule="evenodd" clip-rule="evenodd" d="M18.7639 0.375C19.3891 0.375 19.896 0.87868 19.896 1.5V10.5C19.896 11.1213 19.3891 11.625 18.7639 11.625C18.1387 11.625 17.6318 11.1213 17.6318 10.5V1.5C17.6318 0.87868 18.1387 0.375 18.7639 0.375Z" fill="#52AE30"/>
<path fill-rule="evenodd" clip-rule="evenodd" d="M43.5 70.5H70.5V16.5H43.5V70.5ZM55.4999 70.5H61.4999V64.5H55.4999V70.5Z" fill="#52AE30" fill-opacity="0.2"/>
<path d="M43.5 70.5H42.5C42.5 71.0523 42.9477 71.5 43.5 71.5V70.5ZM70.5 70.5V71.5C71.0523 71.5 71.5 71.0523 71.5 70.5H70.5ZM70.5 16.5H71.5C71.5 15.9477 71.0523 15.5 70.5 15.5V16.5ZM43.5 16.5V15.5C42.9477 15.5 42.5 15.9477 42.5 16.5H43.5ZM55.4999 70.5H54.4999C54.4999 71.0523 54.9476 71.5 55.4999 71.5V70.5ZM61.4999 70.5V71.5C62.0522 71.5 62.4999 71.0523 62.4999 70.5H61.4999ZM61.4999 64.5H62.4999C62.4999 63.9478 62.0522 63.5 61.4999 63.5V64.5ZM55.4999 64.5V63.5C54.9476 63.5 54.4999 63.9478 54.4999 64.5H55.4999ZM43.5 71.5H70.5V69.5H43.5V71.5ZM71.5 70.5V16.5H69.5V70.5H71.5ZM70.5 15.5H43.5V17.5H70.5V15.5ZM42.5 16.5V70.5H44.5V16.5H42.5ZM55.4999 71.5H61.4999V69.5H55.4999V71.5ZM62.4999 70.5V64.5H60.4999V70.5H62.4999ZM61.4999 63.5H55.4999V65.5H61.4999V63.5ZM54.4999 64.5V70.5H56.4999V64.5H54.4999Z" fill="#52AE30"/>
<path fill-rule="evenodd" clip-rule="evenodd" d="M48.3677 22.5C48.3677 21.8787 48.8745 21.375 49.4998 21.375H64.4997C65.125 21.375 65.6318 21.8787 65.6318 22.5C65.6318 23.1213 65.125 23.625 64.4997 23.625H49.4998C48.8745 23.625 48.3677 23.1213 48.3677 22.5Z" fill="#52AE30"/>
<path fill-rule="evenodd" clip-rule="evenodd" d="M48.3677 28.5C48.3677 27.8787 48.8745 27.375 49.4998 27.375H64.4997C65.125 27.375 65.6318 27.8787 65.6318 28.5C65.6318 29.1213 65.125 29.625 64.4997 29.625H49.4998C48.8745 29.625 48.3677 29.1213 48.3677 28.5Z" fill="#52AE30"/>
<path fill-rule="evenodd" clip-rule="evenodd" d="M48.3677 34.5C48.3677 33.8787 48.8745 33.375 49.4998 33.375H64.4997C65.125 33.375 65.6318 33.8787 65.6318 34.5C65.6318 35.1213 65.125 35.625 64.4997 35.625H49.4998C48.8745 35.625 48.3677 35.1213 48.3677 34.5Z" fill="#52AE30"/>
<path fill-rule="evenodd" clip-rule="evenodd" d="M48.3677 40.5C48.3677 39.8787 48.8745 39.375 49.4998 39.375H64.4997C65.125 39.375 65.6318 39.8787 65.6318 40.5C65.6318 41.1213 65.125 41.625 64.4997 41.625H49.4998C48.8745 41.625 48.3677 41.1213 48.3677 40.5Z" fill="#52AE30"/>
<path fill-rule="evenodd" clip-rule="evenodd" d="M48.3677 46.5C48.3677 45.8787 48.8745 45.375 49.4998 45.375H64.4997C65.125 45.375 65.6318 45.8787 65.6318 46.5C65.6318 47.1213 65.125 47.625 64.4997 47.625H49.4998C48.8745 47.625 48.3677 47.1213 48.3677 46.5Z" fill="#52AE30"/>
<path fill-rule="evenodd" clip-rule="evenodd" d="M48.3677 52.5C48.3677 51.8787 48.8745 51.375 49.4998 51.375H64.4997C65.125 51.375 65.6318 51.8787 65.6318 52.5C65.6318 53.1213 65.125 53.625 64.4997 53.625H49.4998C48.8745 53.625 48.3677 53.1213 48.3677 52.5Z" fill="#52AE30"/>
<path fill-rule="evenodd" clip-rule="evenodd" d="M48.3677 58.5C48.3677 57.8787 48.8745 57.375 49.4998 57.375H64.4997C65.125 57.375 65.6318 57.8787 65.6318 58.5C65.6318 59.1213 65.125 59.625 64.4997 59.625H49.4998C48.8745 59.625 48.3677 59.1213 48.3677 58.5Z" fill="#52AE30"/>
<path fill-rule="evenodd" clip-rule="evenodd" d="M6.36816 37.5C6.36816 36.8787 6.87501 36.375 7.50024 36.375H28.5002C29.1255 36.375 29.6323 36.8787 29.6323 37.5C29.6323 38.1213 29.1255 38.625 28.5002 38.625H7.50024C6.87501 38.625 6.36816 38.1213 6.36816 37.5Z" fill="#52AE30"/>
<path fill-rule="evenodd" clip-rule="evenodd" d="M6.36816 46.5C6.36816 45.8787 6.87501 45.375 7.50024 45.375H28.5002C29.1255 45.375 29.6323 45.8787 29.6323 46.5C29.6323 47.1213 29.1255 47.625 28.5002 47.625H7.50024C6.87501 47.625 6.36816 47.1213 6.36816 46.5Z" fill="#52AE30"/>
<path fill-rule="evenodd" clip-rule="evenodd" d="M6.36816 55.5C6.36816 54.8787 6.87501 54.375 7.50024 54.375H28.5002C29.1255 54.375 29.6323 54.8787 29.6323 55.5C29.6323 56.1213 29.1255 56.625 28.5002 56.625H7.50024C6.87501 56.625 6.36816 56.1213 6.36816 55.5Z" fill="#52AE30"/>
<path fill-rule="evenodd" clip-rule="evenodd" d="M12.3677 16.5C12.3677 15.8787 12.8745 15.375 13.4998 15.375H22.4997C23.125 15.375 23.6318 15.8787 23.6318 16.5C23.6318 17.1213 23.125 17.625 22.4997 17.625H13.4998C12.8745 17.625 12.3677 17.1213 12.3677 16.5Z" fill="#52AE30"/>
<path fill-rule="evenodd" clip-rule="evenodd" d="M12.3677 22.5C12.3677 21.8787 12.8745 21.375 13.4998 21.375H22.4997C23.125 21.375 23.6318 21.8787 23.6318 22.5C23.6318 23.1213 23.125 23.625 22.4997 23.625H13.4998C12.8745 23.625 12.3677 23.1213 12.3677 22.5Z" fill="#52AE30"/>
<path fill-rule="evenodd" clip-rule="evenodd" d="M12.3677 64.5C12.3677 63.8787 12.8745 63.375 13.4998 63.375H19.4998C20.125 63.375 20.6318 63.8787 20.6318 64.5V70.5C20.6318 71.1213 20.125 71.625 19.4998 71.625H13.4998C12.8745 71.625 12.3677 71.1213 12.3677 70.5V64.5ZM14.6318 65.625V69.375H18.3677V65.625H14.6318Z" fill="#52AE30"/>
<path fill-rule="evenodd" clip-rule="evenodd" d="M54.3682 64.5C54.3682 63.8787 54.875 63.375 55.5002 63.375H61.5002C62.1255 63.375 62.6323 63.8787 62.6323 64.5V70.5C62.6323 71.1213 62.1255 71.625 61.5002 71.625H55.5002C54.875 71.625 54.3682 71.1213 54.3682 70.5V64.5ZM56.6323 65.625V69.375H60.3682V65.625H56.6323Z" fill="#52AE30"/>
</svg>
