<svg width="74" height="74" viewBox="0 0 74 74" fill="none" xmlns="http://www.w3.org/2000/svg">
<path fill-rule="evenodd" clip-rule="evenodd" d="M30.7393 46.3915C30.7393 46.3915 26.0436 44.8263 26.0436 37.0002C23.4579 37.0002 23.4579 30.7393 26.0436 30.7393C26.0436 29.6906 21.3479 18.2175 29.1741 19.7827C30.7393 13.5218 47.9568 13.5218 49.522 19.7827C50.6083 24.1278 47.9568 29.9692 47.9568 30.7393C50.5425 30.7393 50.5425 37.0002 47.9568 37.0002C47.9568 44.8263 43.2611 46.3915 43.2611 46.3915V54.2177C51.0152 57.1259 58.6942 59.53 62.6261 62.2786C69.0372 55.7798 73.0004 46.8517 73.0004 37.0002C73.0004 17.1156 56.8848 1 37.0002 1C17.1156 1 1 17.1156 1 37.0002C1 46.8705 4.97567 55.8111 11.4088 62.3161C15.5723 59.4361 23.7803 56.8504 30.7393 54.2177V46.3915Z" fill="#52AE30" fill-opacity="0.2" stroke="#52AE30" stroke-width="2" stroke-linejoin="round"/>
<path d="M11.4097 62.3158C17.9367 68.9116 26.9899 73 37.0011 73C47.0279 73 56.0937 68.8991 62.6238 62.2782" stroke="#52AE30" stroke-width="2" stroke-linejoin="round"/>
</svg>
