<svg width="68" height="61" viewBox="0 0 68 61" fill="none" xmlns="http://www.w3.org/2000/svg">
<path d="M50.2045 18.8153V7.78673C50.2045 5.91261 48.7359 4.39331 46.9242 4.39331H4.2803C2.46866 4.39331 1 5.91261 1 7.78673V45.1143C1 46.9884 2.46866 48.5077 4.2803 48.5077H29.844" stroke="#52AE30" stroke-width="2" stroke-linecap="round" stroke-linejoin="round"/>
<path d="M1 16.2705L50.2045 16.2705" stroke="#52AE30" stroke-width="2" stroke-linecap="round" stroke-linejoin="round"/>
<path d="M12.8784 7.78683V1" stroke="#52AE30" stroke-width="2" stroke-linecap="round" stroke-linejoin="round"/>
<path d="M38.3267 7.78683V1" stroke="#52AE30" stroke-width="2" stroke-linecap="round" stroke-linejoin="round"/>
<path d="M13.3013 24.4307C12.3307 24.4307 11.5439 25.2174 11.5439 26.188C11.5439 27.1585 12.3307 27.9453 13.3013 27.9453C14.2718 27.9453 15.0586 27.1585 15.0586 26.188C15.0586 25.2174 14.2718 24.4307 13.3013 24.4307Z" fill="#52AE30"/>
<path d="M25.603 24.4307C24.6325 24.4307 23.8457 25.2174 23.8457 26.188C23.8457 27.1585 24.6325 27.9453 25.603 27.9453C26.5735 27.9453 27.3603 27.1585 27.3603 26.188C27.3603 25.2174 26.5735 24.4307 25.603 24.4307Z" fill="#52AE30"/>
<path d="M37.9053 24.4307C36.9347 24.4307 36.1479 25.2174 36.1479 26.188C36.1479 27.1585 36.9347 27.9453 37.9053 27.9453C38.8758 27.9453 39.6626 27.1585 39.6626 26.188C39.6626 25.2174 38.8758 24.4307 37.9053 24.4307Z" fill="#52AE30"/>
<path d="M13.3013 36.1462C12.3307 36.1462 11.5439 36.933 11.5439 37.9035C11.5439 38.8741 12.3307 39.6609 13.3013 39.6609C14.2718 39.6609 15.0586 38.8741 15.0586 37.9035C15.0586 36.933 14.2718 36.1462 13.3013 36.1462Z" fill="#52AE30"/>
<path d="M25.603 36.1462C24.6325 36.1462 23.8457 36.933 23.8457 37.9035C23.8457 38.8741 24.6325 39.6609 25.603 39.6609C26.5735 39.6609 27.3603 38.8741 27.3603 37.9035C27.3603 36.933 26.5735 36.1462 25.603 36.1462Z" fill="#52AE30"/>
<path d="M50.2054 26.4507L54.0147 38.1746H66.342L56.369 45.4205L60.1784 57.1444L50.2054 49.8986L40.2324 57.1444L44.0417 45.4205L34.0687 38.1746H46.396L50.2054 26.4507Z" stroke="#52AE30" stroke-width="2" stroke-linecap="round" stroke-linejoin="round"/>
</svg>
