<svg width="140" height="35" viewBox="0 0 140 35" fill="none" xmlns="http://www.w3.org/2000/svg">
<path d="M0.691004 1.30005C0.391004 1.60005 0.0910034 2.30005 0.0910034 3.00005V30C0.0910034 30.7001 0.291004 31.3001 0.691004 31.7001L0.791003 31.8L16.091 16.7V16.5L0.691004 1.30005Z" fill="url(#paint0_linear)"/>
<path d="M21.091 21.8L16.091 16.8V16.4L21.091 11.4L21.191 11.5L27.191 14.9C28.891 15.9 28.891 17.5 27.191 18.4C27.191 18.5 21.091 21.8 21.091 21.8Z" fill="url(#paint1_linear)"/>
<path d="M21.191 21.7L16.091 16.6L0.69104 31.8C1.29104 32.4 2.19104 32.4 3.29104 31.9L21.191 21.7Z" fill="url(#paint2_linear)"/>
<path d="M21.191 11.4L3.29104 1.29996C2.19104 0.699962 1.29104 0.799961 0.69104 1.39996L16.091 16.6L21.191 11.4Z" fill="url(#paint3_linear)"/>
<path opacity="0.2" d="M21.091 21.6L3.29102 31.6C2.29102 32.2 1.49102 32.1 0.891016 31.6L0.791016 31.7L0.891016 31.8C1.49102 32.3 2.39102 32.4 3.29102 31.8L21.091 21.6Z" fill="black"/>
<path opacity="0.12" d="M0.69104 31.6C0.29104 31.2 0.19104 30.6 0.19104 29.9V30C0.19104 30.7 0.391039 31.3 0.791039 31.7V31.6C0.891039 31.6 0.69104 31.6 0.69104 31.6Z" fill="black"/>
<path opacity="0.12" d="M27.191 18.1L21.091 21.6L21.191 21.7L27.191 18.3C28.091 17.8 28.391 17.2 28.391 16.6C28.391 17.2 27.891 17.7 27.191 18.1Z" fill="black"/>
<path opacity="0.25" d="M3.29104 1.39998L27.191 15C27.891 15.5 28.391 16 28.391 16.6C28.391 16 27.991 15.4 27.191 14.9L3.29104 1.29998C1.59104 0.299981 0.19104 1.19998 0.19104 3.09998V3.19998C0.29104 1.29998 1.59104 0.399981 3.29104 1.39998Z" fill="white"/>
<path d="M69.3911 19.8C66.4911 19.8 64.0911 22 64.0911 25C64.0911 27.9 66.3911 30.3 69.3911 30.3C72.2911 30.3 74.6911 28.1 74.6911 25C74.6911 21.8 72.2911 19.8 69.3911 19.8ZM69.3911 28.1C67.7911 28.1 66.4911 26.8 66.4911 24.9C66.4911 23 67.7911 21.7 69.3911 21.7C70.9911 21.7 72.291 22.9 72.291 24.9C72.391 26.7 70.9911 28.1 69.3911 28.1ZM57.9911 19.8C55.0911 19.8 52.6911 22 52.6911 25.1C52.6911 28 54.9911 30.4 57.9911 30.4C60.8911 30.4 63.291 28.2 63.291 25.1C63.291 21.8 60.9911 19.8 57.9911 19.8ZM57.9911 28.1C56.3911 28.1 55.0911 26.8 55.0911 24.9C55.0911 23 56.3911 21.7 57.9911 21.7C59.5911 21.7 60.8911 22.9 60.8911 24.9C60.9911 26.7 59.5911 28.1 57.9911 28.1ZM44.3911 21.3V23.5H49.6911C49.5911 24.7 49.0911 25.7 48.4911 26.3C47.7911 27 46.4911 27.9 44.4911 27.9C41.1911 27.9 38.6911 25.3 38.6911 22C38.6911 18.7 41.2911 16.1 44.4911 16.1C46.1911 16.1 47.5911 16.8 48.4911 17.7L50.0911 16.1C48.6911 15 46.9911 14 44.5911 14C40.1911 14 36.3911 17.7 36.3911 22.1C36.3911 26.5 40.1911 30.2 44.5911 30.2C47.0911 30.2 48.7911 29.5 50.1911 27.9C51.6911 26.4 52.1911 24.4 52.1911 22.8C52.1911 22.3 52.1911 21.8 52.0911 21.5C51.9911 21.3 44.3911 21.3 44.3911 21.3ZM99.9911 23.1C99.4911 21.9 98.2911 19.8 95.5911 19.8C92.8911 19.8 90.6911 21.9 90.6911 25.1C90.6911 28 92.891 30.4 95.791 30.4C98.091 30.4 99.5911 28.9 100.091 28.1L98.3911 26.9C97.7911 27.8 97.091 28.4 95.791 28.4C94.4911 28.4 93.791 27.9 93.1911 26.8L100.191 23.9L99.9911 23.1ZM92.8911 24.8C92.8911 22.8 94.4911 21.7 95.5911 21.7C96.4911 21.7 97.2911 22.2 97.5911 22.8L92.8911 24.8ZM87.1911 29.8H89.4911V14.5H87.1911V29.8ZM83.4911 20.9C82.8911 20.3 81.8911 19.7 80.6911 19.7C78.0911 19.7 75.6911 22 75.6911 25C75.6911 28 77.9911 30.1 80.6911 30.1C81.8911 30.1 82.8911 29.5 83.3911 28.9H83.4911V29.6C83.4911 31.6 82.3911 32.7 80.6911 32.7C79.3911 32.7 78.3911 31.7 78.0911 30.9L76.0911 31.8C76.6911 33.1 78.1911 34.9 80.791 34.9C83.4911 34.9 85.6911 33.3 85.6911 29.5V20H83.4911V20.9ZM80.791 28.1C79.1911 28.1 77.8911 26.8 77.8911 24.9C77.8911 23 79.1911 21.7 80.791 21.7C82.391 21.7 83.5911 23 83.5911 24.9C83.5911 26.7 82.391 28.1 80.791 28.1ZM110.691 14.5H105.191V29.8H107.491V24H110.691C113.291 24 115.691 22.2 115.691 19.2C115.691 16.3 113.291 14.5 110.691 14.5ZM110.791 21.8H107.491V16.5H110.791C112.491 16.5 113.491 18 113.491 19.1C113.391 20.5 112.391 21.8 110.791 21.8ZM124.891 19.6C123.191 19.6 121.491 20.3 120.891 21.9L122.991 22.8C123.491 21.9 124.191 21.7 125.091 21.7C126.291 21.7 127.391 22.4 127.491 23.7V23.8C127.091 23.6 126.191 23.2 125.191 23.2C122.991 23.2 120.791 24.4 120.791 26.6C120.791 28.7 122.591 30 124.591 30C126.191 30 126.891 29.3 127.491 28.5H127.591V29.7H129.791V23.8C129.491 21.2 127.491 19.6 124.891 19.6ZM124.591 28.1C123.891 28.1 122.791 27.7 122.791 26.8C122.791 25.6 124.091 25.2 125.191 25.2C126.191 25.2 126.691 25.4 127.291 25.7C127.091 27.1 125.891 28.1 124.591 28.1ZM137.491 20L134.891 26.6H134.791L132.091 20H129.691L133.691 29.3L131.391 34.4H133.691L139.891 20H137.491ZM116.891 29.8H119.191V14.5H116.891V29.8Z" fill="white"/>
<path d="M37.6 10.6H36.7V8.2H37.4C38 7.7 38.4 6.7 38.4 5.4V1.7H43.3V8.2H44.2V10.6H43.3V9H37.7V10.6H37.6ZM39.3 5.3C39.3 6.4 39.1 7.4 38.6 8.1H42.3V2.6H39.2V5.3H39.3ZM51.4 8C50.7 8.7 49.8 9.1 48.7 9.1C47.6 9.1 46.7 8.7 46 8C45.3 7.3 44.9 6.4 44.9 5.3C44.9 4.2 45.3 3.3 46 2.6C46.7 1.9 47.6 1.5 48.7 1.5C49.8 1.5 50.7 1.9 51.4 2.6C52.1 3.3 52.5 4.2 52.5 5.3C52.5 6.4 52.1 7.3 51.4 8ZM46.7 7.4C47.2 7.9 47.9 8.3 48.7 8.3C49.4 8.3 50.2 8.1 50.7 7.4C51.2 6.9 51.6 6.2 51.6 5.3C51.6 4.4 51.4 3.7 50.7 3.2C50.2 2.7 49.5 2.3 48.7 2.3C48 2.3 47.2 2.5 46.7 3.2C46.2 3.8 45.8 4.5 45.8 5.3C45.9 6.2 46.1 6.9 46.7 7.4ZM57.3 9.1C56.2 9.1 55.3 8.7 54.6 8C53.9 7.3 53.5 6.4 53.5 5.3C53.5 4.2 53.9 3.3 54.6 2.6C55.3 1.9 56.2 1.5 57.3 1.5C58.4 1.5 59.3 1.9 60 2.7L59.4 3.3C58.9 2.7 58.2 2.3 57.3 2.3C56.4 2.3 55.8 2.5 55.2 3.2C54.6 3.7 54.3 4.4 54.3 5.3C54.3 6.2 54.5 6.9 55.2 7.4C55.7 7.9 56.4 8.3 57.3 8.3C58.2 8.3 58.9 7.9 59.5 7.2L60.1 7.8C59.7 8.2 59.4 8.5 58.9 8.8C58.4 9 57.9 9.1 57.3 9.1ZM64 9H63V2.5H61V1.7H66V2.6H63.9V9H64ZM72.5 1.7L69.7 7.9C69.3 8.8 68.7 9.2 68 9.2C67.8 9.2 67.5 9.2 67.3 9.1L67.5 8.2C67.6 8.3 67.9 8.3 68 8.3C68.2 8.3 68.4 8.3 68.5 8.2C68.6 8.1 68.7 8 68.9 7.7L69.1 7.1L66.7 1.7H67.8L69.6 5.9L71.3 1.7H72.5ZM73.6 9V1.7H78.9V9H77.9V2.5H74.5V9H73.6ZM80.5 9V1.7H81.5V4.9H85.2V1.7H86.2V9H85.2V5.7H81.5V9H80.5ZM93.9 8C93.2 8.7 92.3 9.1 91.2 9.1C90.1 9.1 89.2 8.7 88.5 8C87.8 7.3 87.4 6.4 87.4 5.3C87.4 4.2 87.8 3.3 88.5 2.6C89.2 1.9 90.1 1.5 91.2 1.5C92.3 1.5 93.2 1.9 93.9 2.6C94.6 3.3 95 4.2 95 5.3C94.9 6.4 94.5 7.3 93.9 8ZM89.1 7.4C89.6 7.9 90.3 8.3 91.1 8.3C91.8 8.3 92.6 8.1 93.1 7.4C93.6 6.9 94 6.2 94 5.3C94 4.4 93.8 3.7 93.1 3.2C92.6 2.7 91.9 2.3 91.1 2.3C90.4 2.3 89.6 2.5 89.1 3.2C88 4.4 88 6.3 89.1 7.4ZM98.8 9V1.7H101.5C102.1 1.7 102.6 1.9 103 2.3C103.4 2.7 103.6 3.2 103.6 3.8C103.6 4.2 103.5 4.4 103.4 4.8C103.2 5.1 103 5.3 102.7 5.4C103.1 5.5 103.3 5.8 103.6 6C103.8 6.2 104 6.6 104 7.1C104 7.7 103.8 8.2 103.4 8.6C102.9 9 102.4 9.2 101.8 9.2H99C98.8 9.1 98.8 9 98.8 9ZM99.8 4.8H101.5C101.9 4.8 102.1 4.7 102.4 4.4C102.6 4.2 102.8 3.9 102.8 3.7C102.8 3.5 102.7 3.2 102.4 3C102.2 2.8 101.9 2.6 101.5 2.6H99.8V4.8ZM99.8 8.1H101.8C102.2 8.1 102.4 8 102.7 7.7C102.9 7.5 103.1 7.2 103.1 6.8C103.1 6.6 103 6.2 102.7 5.9C102.4 5.6 102.2 5.5 101.8 5.5H100V7.9H99.8V8.1Z" fill="white" stroke="white" stroke-width="0.5"/>
<defs>
<linearGradient id="paint0_linear" x1="14.6821" y1="2.69785" x2="-9.64384" y2="9.28837" gradientUnits="userSpaceOnUse">
<stop stop-color="#00A0FF"/>
<stop offset="0.00657" stop-color="#00A1FF"/>
<stop offset="0.2601" stop-color="#00BEFF"/>
<stop offset="0.5122" stop-color="#00D2FF"/>
<stop offset="0.7604" stop-color="#00DFFF"/>
<stop offset="1" stop-color="#00E3FF"/>
</linearGradient>
<linearGradient id="paint1_linear" x1="29.4384" y1="16.617" x2="-0.191794" y2="16.617" gradientUnits="userSpaceOnUse">
<stop stop-color="#FFE000"/>
<stop offset="0.4087" stop-color="#FFBD00"/>
<stop offset="0.7754" stop-color="#FFA500"/>
<stop offset="1" stop-color="#FF9C00"/>
</linearGradient>
<linearGradient id="paint2_linear" x1="18.3872" y1="19.3531" x2="-1.10664" y2="52.148" gradientUnits="userSpaceOnUse">
<stop stop-color="#FF3A44"/>
<stop offset="1" stop-color="#C31162"/>
</linearGradient>
<linearGradient id="paint3_linear" x1="-3.11802" y1="-7.64416" x2="5.51859" y2="7.02148" gradientUnits="userSpaceOnUse">
<stop stop-color="#32A071"/>
<stop offset="0.0685" stop-color="#2DA771"/>
<stop offset="0.4762" stop-color="#15CF74"/>
<stop offset="0.8009" stop-color="#06E775"/>
<stop offset="1" stop-color="#00F076"/>
</linearGradient>
</defs>
</svg>
