<svg width="768" height="768" viewBox="0 0 768 768" fill="none" xmlns="http://www.w3.org/2000/svg">
<path opacity="0.7" fill-rule="evenodd" clip-rule="evenodd" d="M383.547 0V138.728C248.323 138.973 138.773 248.698 138.773 383.975C138.773 519.424 248.568 629.223 383.987 629.223C518.625 629.223 629.227 520.428 629.227 383.07L768 383.168C768 596.058 596.063 768 383.987 768C171.912 768 0 596.058 0 383.975C0 172.064 171.717 0.220282 383.547 0ZM383.976 213.906C478.154 213.906 554.453 290.382 554.453 384.669C554.453 478.981 478.154 555.383 384.001 555.383C289.871 555.383 213.548 478.981 213.548 384.669C213.548 290.382 289.871 213.906 383.976 213.906ZM697.246 168.197C697.246 114.486 653.486 70.8725 599.502 70.8725C545.518 70.8725 501.709 114.486 501.709 168.197C501.709 221.885 545.518 265.45 599.502 265.45C653.486 265.45 697.246 221.885 697.246 168.197Z" fill="url(#paint0_linear)"/>
<defs>
<linearGradient id="paint0_linear" x1="1.17394e-05" y1="768" x2="863.69" y2="625.43" gradientUnits="userSpaceOnUse">
<stop stop-color="#52AE30"/>
<stop offset="1" stop-color="#74BF1E"/>
</linearGradient>
</defs>
</svg>
