<svg width="72" height="72" viewBox="0 0 72 72" fill="none" xmlns="http://www.w3.org/2000/svg">
<path opacity="0.3" fill-rule="evenodd" clip-rule="evenodd" d="M40.5 67C55.1355 67 67 55.1355 67 40.5C67 25.8645 55.1355 14 40.5 14C25.8645 14 14 25.8645 14 40.5C14 55.1355 25.8645 67 40.5 67Z" fill="#52AE30"/>
<path fill-rule="evenodd" clip-rule="evenodd" d="M37.5 64C52.1355 64 64 52.1355 64 37.5C64 22.8645 52.1355 11 37.5 11C22.8645 11 11 22.8645 11 37.5C11 52.1355 22.8645 64 37.5 64Z" stroke="#52AE30" stroke-width="2"/>
<path opacity="0.5" d="M37.3798 6C35.3365 6 33.3387 6.1953 31.4043 6.56826" stroke="#52AE30" stroke-width="2" stroke-linecap="round"/>
<path opacity="0.5" d="M23.887 9.04077C13.3093 14.086 6 24.8792 6 37.3795" stroke="#52AE30" stroke-width="2" stroke-linecap="round"/>
<path d="M30 50H44.4" stroke="#52AE30" stroke-width="2" stroke-linecap="round" stroke-linejoin="round"/>
<path d="M30 26.8276L37.2 22V50" stroke="#52AE30" stroke-width="2" stroke-linecap="round" stroke-linejoin="round"/>
</svg>
