<svg width="132" height="36" viewBox="0 0 132 36" fill="none" xmlns="http://www.w3.org/2000/svg">
<path d="M21.133 16.7C21.133 12.8 24.333 11 24.433 10.9C22.633 8.3 19.833 7.9 18.833 7.9C16.433 7.7 14.233 9.3 13.033 9.3C11.833 9.3 9.93298 7.9 7.93298 8C5.33298 8 2.93298 9.5 1.63298 11.8C-1.06702 16.5 0.932984 23.4 3.53298 27.2C4.83298 29.1 6.33298 31.1 8.33298 31.1C10.233 31 11.033 29.9 13.333 29.9C15.633 29.9 16.333 31.1 18.333 31.1C20.433 31.1 21.733 29.2 23.033 27.3C24.533 25.2 25.133 23.1 25.133 23C25.133 22.9 21.133 21.4 21.133 16.7ZM17.233 5.4C18.233 4.1 19.033 2.3 18.833 0.5C17.333 0.6 15.433 1.5 14.333 2.8C13.333 3.9 12.533 5.8 12.733 7.5C14.433 7.6 16.133 6.7 17.233 5.4Z" fill="white"/>
<path d="M49.333 30.8H46.633L45.133 26.1H39.933L38.533 30.8H35.833L40.933 14.8H44.133L49.333 30.8ZM44.633 24.1L43.233 20C43.133 19.6 42.833 18.6 42.433 17C42.233 17.7 42.033 18.7 41.633 20L40.333 24.1H44.633ZM62.533 24.9C62.533 26.9 62.033 28.4 60.933 29.5C60.033 30.5 58.833 31 57.433 31C55.933 31 54.833 30.5 54.133 29.4V35.5H51.533V23.1C51.533 21.8 51.533 20.6 51.433 19.3H53.633L53.733 21.1C54.633 19.7 55.833 19 57.633 19C59.033 19 60.133 19.5 61.033 20.6C62.033 21.7 62.533 23.2 62.533 24.9ZM59.933 25C59.933 23.9 59.633 23 59.133 22.2C58.533 21.4 57.833 21.1 56.933 21.1C56.333 21.1 55.733 21.3 55.233 21.7C54.733 22.1 54.433 22.7 54.233 23.3C54.133 23.6 54.133 23.9 54.133 24.1V26C54.133 26.8 54.433 27.5 54.933 28.1C55.433 28.7 56.133 29 56.933 29C57.933 29 58.633 28.6 59.133 27.9C59.633 27.2 59.933 26.2 59.933 25ZM75.733 24.9C75.733 26.9 75.233 28.4 74.133 29.5C73.233 30.5 72.033 31 70.633 31C69.133 31 68.033 30.5 67.333 29.4V35.5H64.733V23.1C64.733 21.8 64.733 20.6 64.633 19.3H66.833L66.933 21.1C67.733 19.7 69.033 19 70.833 19C72.233 19 73.333 19.5 74.233 20.6C75.233 21.7 75.733 23.2 75.733 24.9ZM73.133 25C73.133 23.9 72.833 23 72.333 22.2C71.733 21.4 71.033 21.1 70.133 21.1C69.533 21.1 68.933 21.3 68.433 21.7C67.933 22.1 67.633 22.7 67.433 23.3C67.333 23.6 67.333 23.9 67.333 24.1V26C67.333 26.8 67.633 27.5 68.133 28.1C68.633 28.7 69.333 29 70.133 29C71.133 29 71.833 28.6 72.333 27.9C72.833 27.2 73.133 26.2 73.133 25ZM90.533 26.3C90.533 27.7 90.033 28.8 89.133 29.6C88.133 30.5 86.633 31 84.833 31C83.133 31 81.733 30.7 80.733 30L81.333 27.9C82.433 28.6 83.733 28.9 85.033 28.9C86.033 28.9 86.733 28.7 87.233 28.2C87.733 27.8 88.033 27.2 88.033 26.5C88.033 25.9 87.833 25.3 87.333 24.9C86.933 24.5 86.133 24 85.133 23.7C82.333 22.7 80.933 21.1 80.933 19.1C80.933 17.8 81.433 16.7 82.433 15.9C83.433 15.1 84.733 14.6 86.333 14.6C87.833 14.6 89.033 14.9 89.933 15.4L89.333 17.5C88.433 17 87.433 16.8 86.233 16.8C85.333 16.8 84.633 17 84.133 17.5C83.733 17.9 83.533 18.4 83.533 18.9C83.533 19.5 83.733 20.1 84.233 20.5C84.633 20.9 85.433 21.3 86.533 21.7C87.933 22.3 88.933 22.9 89.533 23.6C90.133 24.3 90.533 25.2 90.533 26.3ZM98.933 21.2H96.133V26.8C96.133 28.2 96.633 28.9 97.633 28.9C98.133 28.9 98.433 28.9 98.733 28.8L98.833 30.7C98.333 30.9 97.633 31 96.833 31C95.833 31 95.033 30.7 94.433 30.1C93.833 29.5 93.533 28.4 93.533 27V21.2H91.833V19.3H93.533V17.2L96.033 16.4V19.3H98.833L98.933 21.2ZM111.633 25C111.633 26.8 111.133 28.2 110.133 29.4C109.033 30.6 107.633 31.2 105.933 31.2C104.233 31.2 102.933 30.6 101.933 29.5C100.933 28.4 100.433 27 100.433 25.3C100.433 23.5 100.933 22.1 102.033 20.9C103.033 19.8 104.433 19.2 106.233 19.2C107.933 19.2 109.233 19.8 110.333 20.9C111.133 21.8 111.633 23.2 111.633 25ZM109.033 25C109.033 23.9 108.833 23 108.333 22.3C107.833 21.4 107.033 20.9 106.033 20.9C105.033 20.9 104.233 21.4 103.733 22.3C103.233 23.1 103.033 24 103.033 25.1C103.033 26.2 103.233 27.1 103.733 27.8C104.333 28.7 105.033 29.2 106.033 29.2C107.033 29.2 107.733 28.7 108.333 27.8C108.733 27 109.033 26.1 109.033 25ZM119.933 21.5C119.633 21.5 119.433 21.4 119.133 21.4C118.233 21.4 117.533 21.7 117.033 22.4C116.633 23 116.433 23.8 116.433 24.7V30.7H113.833V22.8C113.833 21.5 113.833 20.3 113.733 19.2H115.933L116.033 21.4H116.133C116.433 20.6 116.833 20 117.433 19.6C118.033 19.2 118.633 19 119.233 19C119.433 19 119.633 19 119.833 19L119.933 21.5ZM131.433 24.5C131.433 25 131.433 25.3 131.333 25.7H123.633C123.633 26.8 124.033 27.7 124.733 28.3C125.333 28.8 126.233 29.1 127.233 29.1C128.333 29.1 129.433 28.9 130.333 28.6L130.733 30.4C129.633 30.9 128.333 31.1 126.833 31.1C125.033 31.1 123.633 30.6 122.633 29.5C121.633 28.5 121.133 27 121.133 25.3C121.133 23.6 121.633 22.1 122.533 21C123.533 19.8 124.833 19.2 126.533 19.2C128.233 19.2 129.433 19.8 130.333 21C131.033 21.9 131.433 23.1 131.433 24.5ZM128.933 23.8C128.933 23 128.833 22.4 128.433 21.8C128.033 21.1 127.333 20.7 126.433 20.7C125.633 20.7 124.933 21 124.433 21.7C124.033 22.3 123.733 22.9 123.633 23.7L128.933 23.8Z" fill="white"/>
<path d="M37.033 1.69998C37.333 1.49998 37.633 1.39998 37.933 1.29998C38.333 1.19998 38.733 1.09998 39.133 1.09998C39.933 1.09998 40.433 1.29998 40.933 1.59998C41.333 1.99998 41.633 2.39998 41.633 2.99998C41.633 3.49998 41.533 3.89998 41.233 4.19998C40.933 4.49997 40.533 4.69997 40.133 4.89997C40.333 4.89997 40.633 4.99998 40.833 5.09998C41.033 5.19998 41.233 5.29998 41.433 5.49998C41.833 5.79998 41.933 6.29998 41.933 6.79998C41.933 7.19998 41.833 7.59997 41.633 7.89997C41.433 8.19998 41.233 8.39998 40.933 8.59998C40.633 8.79998 40.333 8.89998 40.033 8.99998C39.733 9.09998 39.333 9.09998 39.033 9.09998C38.633 9.09998 38.333 9.09998 37.933 8.99998C37.533 8.89998 37.233 8.79998 36.933 8.59998L37.233 7.59998C37.433 7.69998 37.733 7.79997 38.033 7.89997C38.333 7.99997 38.633 7.99998 39.033 7.99998C39.533 7.99998 39.933 7.89998 40.233 7.59998C40.533 7.39998 40.633 6.99998 40.633 6.59998C40.633 6.29998 40.533 6.09997 40.433 5.89997C40.333 5.69998 40.133 5.59998 39.933 5.49998C39.733 5.39998 39.533 5.29998 39.333 5.29998C39.133 5.29998 38.833 5.19998 38.633 5.19998H38.133V4.19998H38.633C38.833 4.19998 39.133 4.19998 39.333 4.09998C39.533 3.99998 39.733 3.99998 39.833 3.79998C40.033 3.69998 40.133 3.59997 40.233 3.39997C40.333 3.19997 40.333 3.09997 40.333 2.89997C40.333 2.59997 40.233 2.29998 39.933 2.09998C39.633 1.89998 39.333 1.79998 38.933 1.79998C38.633 1.79998 38.333 1.79997 38.033 1.89997C37.733 1.99997 37.533 2.09997 37.233 2.19998L37.033 1.69998ZM47.033 9.09998L46.933 8.39997C46.533 8.89997 46.033 9.19998 45.233 9.19998C44.933 9.19998 44.733 9.19998 44.533 9.09998C44.333 8.99998 44.133 8.89997 44.033 8.69998C43.833 8.59998 43.733 8.39997 43.633 8.19998C43.533 7.99998 43.533 7.79998 43.533 7.49998C43.533 6.79998 43.833 6.29997 44.433 5.89997C45.033 5.49997 45.833 5.39997 46.833 5.39997V5.29998C46.833 4.59998 46.433 4.19998 45.633 4.19998C45.033 4.19998 44.633 4.29998 44.133 4.59998L43.833 3.79998C44.333 3.49998 45.033 3.29998 45.733 3.29998C47.233 3.29998 47.933 4.09998 47.933 5.59998V7.69998C47.933 8.29997 47.933 8.69998 48.033 8.99998L47.033 9.09998ZM46.833 6.29998C46.133 6.29998 45.633 6.39998 45.233 6.59998C44.933 6.79998 44.733 7.09998 44.733 7.49998C44.733 7.79998 44.833 7.99998 44.933 8.19998C45.033 8.39997 45.333 8.39997 45.533 8.39997C45.833 8.39997 46.133 8.29998 46.333 8.09998C46.433 7.99998 46.533 7.89997 46.633 7.69998C46.733 7.59998 46.733 7.39997 46.733 7.19998C46.833 7.19998 46.833 6.29998 46.833 6.29998ZM54.133 3.49998V4.49998H51.833V9.09998H50.533V3.39997L54.133 3.49998ZM61.333 6.19998C61.333 6.59998 61.233 7.09997 61.133 7.39997C61.033 7.69998 60.833 8.09997 60.633 8.39997C60.433 8.69998 60.133 8.89998 59.833 8.99998C59.533 9.19998 59.133 9.19998 58.833 9.19998C58.133 9.19998 57.533 8.89997 57.233 8.39997V11.4H55.933V5.29998C55.933 4.69998 55.933 4.09997 55.933 3.39997H57.033L57.133 4.29998C57.533 3.59998 58.233 3.29998 59.033 3.29998C59.333 3.29998 59.633 3.39998 59.933 3.49998C60.233 3.59998 60.433 3.79998 60.633 4.09998C60.833 4.39998 61.033 4.69998 61.133 4.99998C61.233 5.29998 61.333 5.79997 61.333 6.19998ZM60.033 6.29998C60.033 5.99998 60.033 5.79998 59.933 5.49998C59.833 5.29998 59.733 5.09997 59.633 4.89997C59.533 4.69997 59.333 4.59998 59.133 4.49998C58.933 4.39998 58.733 4.39997 58.533 4.39997C58.333 4.39997 58.133 4.39998 58.033 4.49998C57.833 4.59998 57.733 4.69998 57.633 4.79998C57.533 4.89998 57.433 5.09998 57.333 5.29998C57.233 5.49998 57.233 5.69998 57.233 5.89997V6.79998C57.233 6.99998 57.233 7.19998 57.333 7.39997C57.433 7.59997 57.533 7.69998 57.633 7.89997C57.733 8.09997 57.933 8.09998 58.033 8.19998C58.233 8.29997 58.333 8.29998 58.633 8.29998C59.133 8.29998 59.433 8.09998 59.733 7.79998C59.933 7.39998 60.033 6.89998 60.033 6.29998ZM68.033 3.49998L66.633 7.39997C66.333 8.29997 65.933 9.09998 65.633 9.69998C65.333 10.3 65.033 10.7 64.733 11C64.333 11.4 63.833 11.6 63.333 11.7L63.033 10.6C63.333 10.5 63.733 10.3 63.933 10.1C64.233 9.89998 64.433 9.49998 64.633 9.19998C64.733 9.09998 64.733 8.99997 64.733 8.89997C64.733 8.79997 64.733 8.79998 64.633 8.59998L62.633 3.39997H64.033L65.133 6.59998C65.233 6.69998 65.233 6.89998 65.333 7.09998C65.433 7.29998 65.433 7.49998 65.533 7.69998C65.533 7.59998 65.633 7.39997 65.633 7.19998C65.633 6.99998 65.733 6.79998 65.833 6.49998L66.833 3.39997L68.033 3.49998ZM70.233 5.79998H70.833C71.233 5.79998 71.633 5.69998 71.833 5.59998C72.033 5.49998 72.133 5.29998 72.133 4.99998C72.133 4.79998 72.033 4.59997 71.833 4.39997C71.633 4.29997 71.333 4.19998 71.033 4.19998C70.833 4.19998 70.533 4.19998 70.333 4.29998C70.133 4.39998 69.933 4.49998 69.733 4.59998L69.433 3.79998C69.733 3.59998 70.033 3.49997 70.433 3.39997C70.733 3.29997 71.033 3.29998 71.433 3.29998C71.733 3.29998 71.933 3.29997 72.233 3.39997C72.533 3.49997 72.733 3.49997 72.933 3.69998C73.133 3.79997 73.333 3.99997 73.433 4.19998C73.533 4.39998 73.633 4.59997 73.633 4.89997C73.633 5.09997 73.633 5.19998 73.533 5.39997C73.433 5.49997 73.333 5.69998 73.233 5.79998C73.133 5.89998 73.033 5.99998 72.833 6.09998C72.733 6.19998 72.533 6.19998 72.433 6.19998C72.633 6.19998 72.833 6.29998 72.933 6.29998C73.133 6.39998 73.233 6.49998 73.433 6.59998C73.533 6.69998 73.733 6.79998 73.733 6.99998C73.833 7.19998 73.833 7.29998 73.833 7.49998C73.833 7.79998 73.733 8.09998 73.633 8.29998C73.433 8.49998 73.233 8.69998 73.033 8.79998C72.733 8.89998 72.533 8.99998 72.233 9.09998C71.633 9.19998 70.933 9.19998 70.333 9.09998C70.033 8.99998 69.733 8.89998 69.433 8.79998L69.733 7.99998C69.933 8.09998 70.133 8.19998 70.433 8.29998C70.733 8.39998 70.933 8.39997 71.233 8.39997C71.633 8.39997 72.033 8.29997 72.233 8.19998C72.433 7.99998 72.533 7.79998 72.533 7.59998C72.533 7.39998 72.533 7.29997 72.433 7.19998C72.333 7.09998 72.233 6.99997 72.133 6.89997C71.933 6.79997 71.833 6.79998 71.633 6.79998C71.433 6.79998 71.233 6.79998 71.033 6.79998H70.433L70.233 5.79998ZM76.933 3.49998V5.49998C76.933 5.99998 76.933 6.39997 76.933 6.69998C76.933 7.09998 76.933 7.39997 76.833 7.89997L77.333 6.99998C77.433 6.69998 77.633 6.39998 77.733 6.09998L79.133 3.39997H80.733V9.09998H79.533V7.09998C79.533 6.69998 79.533 6.29998 79.533 5.79998C79.533 5.39998 79.533 4.99998 79.633 4.49998H79.533C79.433 4.89998 79.233 5.19998 79.133 5.39997C79.033 5.69998 78.833 5.89997 78.733 6.19998C78.533 6.69998 78.233 7.09998 78.033 7.59998C77.833 8.09998 77.533 8.49998 77.233 8.99998H75.633V3.29998C75.733 3.49998 76.933 3.49998 76.933 3.49998ZM87.433 3.49998V4.49998H85.733V9.09998H84.533V4.49998H82.833V3.49998H87.433ZM93.833 5.99998C93.833 6.09998 93.833 6.19998 93.833 6.29998C93.833 6.39998 93.833 6.49998 93.833 6.59998H90.033C90.033 7.09998 90.233 7.49998 90.533 7.79998C90.833 8.09998 91.233 8.19998 91.833 8.19998C92.333 8.19998 92.833 8.09997 93.333 7.89997L93.533 8.79998C93.033 8.99998 92.333 9.19998 91.633 9.19998C91.233 9.19998 90.833 9.09998 90.433 8.99998C90.133 8.89998 89.833 8.69998 89.533 8.39997C89.333 8.09997 89.133 7.79998 88.933 7.49998C88.833 7.09998 88.733 6.79998 88.733 6.29998C88.733 5.89998 88.833 5.49998 88.933 5.09998C89.033 4.69998 89.233 4.39998 89.433 4.09998C89.633 3.79998 89.933 3.59998 90.233 3.49998C90.533 3.29998 90.933 3.29998 91.333 3.29998C91.733 3.29998 92.033 3.39998 92.333 3.49998C92.633 3.59998 92.833 3.79998 93.033 3.99998C93.233 4.19998 93.433 4.49997 93.533 4.89997C93.733 5.29997 93.833 5.59998 93.833 5.99998ZM92.633 5.69998C92.633 5.29997 92.533 4.89998 92.333 4.59998C92.133 4.29998 91.833 4.19998 91.433 4.19998C91.033 4.19998 90.733 4.29998 90.533 4.59998C90.233 4.89998 90.133 5.19998 90.133 5.69998C90.033 5.69998 92.633 5.69998 92.633 5.69998ZM98.833 3.49998C99.033 3.49998 99.333 3.39997 99.733 3.39997C100.133 3.39997 100.433 3.39997 100.833 3.39997C101.033 3.39997 101.333 3.39997 101.633 3.39997C101.933 3.39997 102.233 3.49998 102.433 3.59998C102.733 3.69998 102.933 3.79998 103.133 3.99998C103.333 4.19998 103.433 4.49998 103.433 4.79998C103.433 5.09998 103.333 5.39998 103.133 5.59998C103.033 5.69998 102.933 5.79997 102.733 5.89997C102.633 5.99997 102.433 5.99998 102.333 5.99998C102.733 6.09998 103.033 6.19998 103.333 6.39997C103.633 6.59997 103.733 6.89998 103.733 7.29998C103.733 7.69998 103.633 7.99998 103.433 8.19998C103.233 8.39997 102.933 8.59998 102.633 8.69998C102.333 8.79997 101.933 8.89997 101.633 8.89997C101.333 8.89997 100.933 8.89997 100.733 8.89997C100.433 8.89997 100.133 8.89997 99.833 8.89997C99.533 8.89997 99.333 8.89997 99.033 8.89997L98.833 3.49998ZM100.033 5.79998H100.633C100.833 5.79998 101.033 5.79998 101.233 5.79998C101.433 5.79998 101.533 5.69998 101.733 5.69998C101.833 5.59998 101.933 5.59998 102.033 5.49998C102.133 5.39998 102.133 5.29998 102.133 5.09998C102.133 4.79998 102.033 4.69998 101.833 4.49998C101.633 4.39998 101.333 4.29998 100.833 4.29998C100.733 4.29998 100.633 4.29998 100.533 4.29998C100.433 4.29998 100.333 4.29998 100.133 4.29998V5.79998H100.033ZM100.033 8.29998C100.233 8.29998 100.333 8.29998 100.433 8.29998C100.733 8.29998 101.033 8.29998 101.333 8.29998C101.533 8.29998 101.633 8.19998 101.833 8.19998C101.933 8.09998 102.133 7.99997 102.233 7.89997C102.333 7.79997 102.333 7.59998 102.333 7.49998C102.333 7.19998 102.233 6.99998 101.933 6.79998C101.633 6.69998 101.233 6.59998 100.733 6.59998H100.033V8.29998Z" fill="white"/>
</svg>
