<svg width="116" height="116" viewBox="0 0 116 116" fill="none" xmlns="http://www.w3.org/2000/svg">
<path d="M46.4 0H41.76V4.64H46.4V0Z" fill="black"/>
<path d="M60.32 0H55.68V4.64H60.32V0Z" fill="black"/>
<path d="M69.6 0H64.96V4.64H69.6V0Z" fill="black"/>
<path d="M78.88 0H74.24V4.64H78.88V0Z" fill="black"/>
<path d="M41.76 4.64001H37.12V9.28002H41.76V4.64001Z" fill="black"/>
<path d="M46.4 4.64001H41.76V9.28002H46.4V4.64001Z" fill="black"/>
<path d="M55.68 4.64001H51.04V9.28002H55.68V4.64001Z" fill="black"/>
<path d="M64.96 4.64001H60.32V9.28002H64.96V4.64001Z" fill="black"/>
<path d="M69.6 4.64001H64.96V9.28002H69.6V4.64001Z" fill="black"/>
<path d="M78.88 4.64001H74.24V9.28002H78.88V4.64001Z" fill="black"/>
<path d="M41.76 9.28003H37.12V13.92H41.76V9.28003Z" fill="black"/>
<path d="M46.4 9.28003H41.76V13.92H46.4V9.28003Z" fill="black"/>
<path d="M55.68 9.28003H51.04V13.92H55.68V9.28003Z" fill="black"/>
<path d="M60.32 9.28003H55.68V13.92H60.32V9.28003Z" fill="black"/>
<path d="M69.6 9.28003H64.96V13.92H69.6V9.28003Z" fill="black"/>
<path d="M74.24 9.28003H69.6V13.92H74.24V9.28003Z" fill="black"/>
<path d="M78.88 9.28003H74.24V13.92H78.88V9.28003Z" fill="black"/>
<path d="M41.76 13.92H37.12V18.56H41.76V13.92Z" fill="black"/>
<path d="M51.04 13.92H46.4V18.56H51.04V13.92Z" fill="black"/>
<path d="M55.68 13.92H51.04V18.56H55.68V13.92Z" fill="black"/>
<path d="M60.32 13.92H55.68V18.56H60.32V13.92Z" fill="black"/>
<path d="M64.96 13.92H60.32V18.56H64.96V13.92Z" fill="black"/>
<path d="M51.04 18.5599H46.4V23.1999H51.04V18.5599Z" fill="black"/>
<path d="M55.68 18.5599H51.04V23.1999H55.68V18.5599Z" fill="black"/>
<path d="M60.32 18.5599H55.68V23.1999H60.32V18.5599Z" fill="black"/>
<path d="M64.96 18.5599H60.32V23.1999H64.96V18.5599Z" fill="black"/>
<path d="M78.88 18.5599H74.24V23.1999H78.88V18.5599Z" fill="black"/>
<path d="M51.04 23.2001H46.4V27.8401H51.04V23.2001Z" fill="black"/>
<path d="M60.32 23.2001H55.68V27.8401H60.32V23.2001Z" fill="black"/>
<path d="M69.6 23.2001H64.96V27.8401H69.6V23.2001Z" fill="black"/>
<path d="M41.76 27.84H37.12V32.48H41.76V27.84Z" fill="black"/>
<path d="M51.04 27.84H46.4V32.48H51.04V27.84Z" fill="black"/>
<path d="M60.32 27.84H55.68V32.48H60.32V27.84Z" fill="black"/>
<path d="M69.6 27.84H64.96V32.48H69.6V27.84Z" fill="black"/>
<path d="M78.88 27.84H74.24V32.48H78.88V27.84Z" fill="black"/>
<path d="M41.76 32.48H37.12V37.12H41.76V32.48Z" fill="black"/>
<path d="M46.4 32.48H41.76V37.12H46.4V32.48Z" fill="black"/>
<path d="M55.68 32.48H51.04V37.12H55.68V32.48Z" fill="black"/>
<path d="M60.32 32.48H55.68V37.12H60.32V32.48Z" fill="black"/>
<path d="M69.6 32.48H64.96V37.12H69.6V32.48Z" fill="black"/>
<path d="M74.24 32.48H69.6V37.12H74.24V32.48Z" fill="black"/>
<path d="M4.64 37.12H0V41.76H4.64V37.12Z" fill="black"/>
<path d="M32.48 37.12H27.84V41.76H32.48V37.12Z" fill="black"/>
<path d="M41.76 37.12H37.12V41.76H41.76V37.12Z" fill="black"/>
<path d="M46.4 37.12H41.76V41.76H46.4V37.12Z" fill="black"/>
<path d="M60.32 37.12H55.68V41.76H60.32V37.12Z" fill="black"/>
<path d="M64.96 37.12H60.32V41.76H64.96V37.12Z" fill="black"/>
<path d="M69.6 37.12H64.96V41.76H69.6V37.12Z" fill="black"/>
<path d="M74.24 37.12H69.6V41.76H74.24V37.12Z" fill="black"/>
<path d="M78.88 37.12H74.24V41.76H78.88V37.12Z" fill="black"/>
<path d="M83.52 37.12H78.88V41.76H83.52V37.12Z" fill="black"/>
<path d="M88.16 37.12H83.52V41.76H88.16V37.12Z" fill="black"/>
<path d="M102.08 37.12H97.44V41.76H102.08V37.12Z" fill="black"/>
<path d="M106.72 37.12H102.08V41.76H106.72V37.12Z" fill="black"/>
<path d="M111.36 37.12H106.72V41.76H111.36V37.12Z" fill="black"/>
<path d="M9.28002 41.76H4.64001V46.4H9.28002V41.76Z" fill="black"/>
<path d="M13.92 41.76H9.27997V46.4H13.92V41.76Z" fill="black"/>
<path d="M18.56 41.76H13.92V46.4H18.56V41.76Z" fill="black"/>
<path d="M23.2 41.76H18.56V46.4H23.2V41.76Z" fill="black"/>
<path d="M37.12 41.76H32.48V46.4H37.12V41.76Z" fill="black"/>
<path d="M51.04 41.76H46.4V46.4H51.04V41.76Z" fill="black"/>
<path d="M55.68 41.76H51.04V46.4H55.68V41.76Z" fill="black"/>
<path d="M69.6 41.76H64.96V46.4H69.6V41.76Z" fill="black"/>
<path d="M74.24 41.76H69.6V46.4H74.24V41.76Z" fill="black"/>
<path d="M83.52 41.76H78.88V46.4H83.52V41.76Z" fill="black"/>
<path d="M92.8 41.76H88.16V46.4H92.8V41.76Z" fill="black"/>
<path d="M97.44 41.76H92.8V46.4H97.44V41.76Z" fill="black"/>
<path d="M102.08 41.76H97.44V46.4H102.08V41.76Z" fill="black"/>
<path d="M106.72 41.76H102.08V46.4H106.72V41.76Z" fill="black"/>
<path d="M111.36 41.76H106.72V46.4H111.36V41.76Z" fill="black"/>
<path d="M4.64 46.4H0V51.04H4.64V46.4Z" fill="black"/>
<path d="M18.56 46.4H13.92V51.04H18.56V46.4Z" fill="black"/>
<path d="M23.2 46.4H18.56V51.04H23.2V46.4Z" fill="black"/>
<path d="M32.48 46.4H27.84V51.04H32.48V46.4Z" fill="black"/>
<path d="M51.04 46.4H46.4V51.04H51.04V46.4Z" fill="black"/>
<path d="M55.68 46.4H51.04V51.04H55.68V46.4Z" fill="black"/>
<path d="M60.32 46.4H55.68V51.04H60.32V46.4Z" fill="black"/>
<path d="M64.96 46.4H60.32V51.04H64.96V46.4Z" fill="black"/>
<path d="M74.24 46.4H69.6V51.04H74.24V46.4Z" fill="black"/>
<path d="M88.16 46.4H83.52V51.04H88.16V46.4Z" fill="black"/>
<path d="M102.08 46.4H97.44V51.04H102.08V46.4Z" fill="black"/>
<path d="M111.36 46.4H106.72V51.04H111.36V46.4Z" fill="black"/>
<path d="M116 46.4H111.36V51.04H116V46.4Z" fill="black"/>
<path d="M4.64 51.04H0V55.68H4.64V51.04Z" fill="black"/>
<path d="M9.28002 51.04H4.64001V55.68H9.28002V51.04Z" fill="black"/>
<path d="M13.92 51.04H9.27997V55.68H13.92V51.04Z" fill="black"/>
<path d="M18.56 51.04H13.92V55.68H18.56V51.04Z" fill="black"/>
<path d="M37.12 51.04H32.48V55.68H37.12V51.04Z" fill="black"/>
<path d="M41.76 51.04H37.12V55.68H41.76V51.04Z" fill="black"/>
<path d="M46.4 51.04H41.76V55.68H46.4V51.04Z" fill="black"/>
<path d="M51.04 51.04H46.4V55.68H51.04V51.04Z" fill="black"/>
<path d="M60.32 51.04H55.68V55.68H60.32V51.04Z" fill="black"/>
<path d="M74.24 51.04H69.6V55.68H74.24V51.04Z" fill="black"/>
<path d="M78.88 51.04H74.24V55.68H78.88V51.04Z" fill="black"/>
<path d="M88.16 51.04H83.52V55.68H88.16V51.04Z" fill="black"/>
<path d="M92.8 51.04H88.16V55.68H92.8V51.04Z" fill="black"/>
<path d="M102.08 51.04H97.44V55.68H102.08V51.04Z" fill="black"/>
<path d="M116 51.04H111.36V55.68H116V51.04Z" fill="black"/>
<path d="M9.28002 55.6801H4.64001V60.3201H9.28002V55.6801Z" fill="black"/>
<path d="M18.56 55.6801H13.92V60.3201H18.56V55.6801Z" fill="black"/>
<path d="M27.84 55.6801H23.2V60.3201H27.84V55.6801Z" fill="black"/>
<path d="M32.48 55.6801H27.84V60.3201H32.48V55.6801Z" fill="black"/>
<path d="M37.12 55.6801H32.48V60.3201H37.12V55.6801Z" fill="black"/>
<path d="M51.04 55.6801H46.4V60.3201H51.04V55.6801Z" fill="black"/>
<path d="M55.68 55.6801H51.04V60.3201H55.68V55.6801Z" fill="black"/>
<path d="M60.32 55.6801H55.68V60.3201H60.32V55.6801Z" fill="black"/>
<path d="M78.88 55.6801H74.24V60.3201H78.88V55.6801Z" fill="black"/>
<path d="M88.16 55.6801H83.52V60.3201H88.16V55.6801Z" fill="black"/>
<path d="M116 55.6801H111.36V60.3201H116V55.6801Z" fill="black"/>
<path d="M4.64 60.3199H0V64.9599H4.64V60.3199Z" fill="black"/>
<path d="M9.28002 60.3199H4.64001V64.9599H9.28002V60.3199Z" fill="black"/>
<path d="M18.56 60.3199H13.92V64.9599H18.56V60.3199Z" fill="black"/>
<path d="M41.76 60.3199H37.12V64.9599H41.76V60.3199Z" fill="black"/>
<path d="M46.4 60.3199H41.76V64.9599H46.4V60.3199Z" fill="black"/>
<path d="M51.04 60.3199H46.4V64.9599H51.04V60.3199Z" fill="black"/>
<path d="M69.6 60.3199H64.96V64.9599H69.6V60.3199Z" fill="black"/>
<path d="M74.24 60.3199H69.6V64.9599H74.24V60.3199Z" fill="black"/>
<path d="M92.8 60.3199H88.16V64.9599H92.8V60.3199Z" fill="black"/>
<path d="M111.36 60.3199H106.72V64.9599H111.36V60.3199Z" fill="black"/>
<path d="M4.64 64.96H0V69.6H4.64V64.96Z" fill="black"/>
<path d="M27.84 64.96H23.2V69.6H27.84V64.96Z" fill="black"/>
<path d="M32.48 64.96H27.84V69.6H32.48V64.96Z" fill="black"/>
<path d="M46.4 64.96H41.76V69.6H46.4V64.96Z" fill="black"/>
<path d="M51.04 64.96H46.4V69.6H51.04V64.96Z" fill="black"/>
<path d="M55.68 64.96H51.04V69.6H55.68V64.96Z" fill="black"/>
<path d="M60.32 64.96H55.68V69.6H60.32V64.96Z" fill="black"/>
<path d="M64.96 64.96H60.32V69.6H64.96V64.96Z" fill="black"/>
<path d="M74.24 64.96H69.6V69.6H74.24V64.96Z" fill="black"/>
<path d="M78.88 64.96H74.24V69.6H78.88V64.96Z" fill="black"/>
<path d="M88.16 64.96H83.52V69.6H88.16V64.96Z" fill="black"/>
<path d="M92.8 64.96H88.16V69.6H92.8V64.96Z" fill="black"/>
<path d="M97.44 64.96H92.8V69.6H97.44V64.96Z" fill="black"/>
<path d="M102.08 64.96H97.44V69.6H102.08V64.96Z" fill="black"/>
<path d="M111.36 64.96H106.72V69.6H111.36V64.96Z" fill="black"/>
<path d="M116 64.96H111.36V69.6H116V64.96Z" fill="black"/>
<path d="M4.64 69.6H0V74.24H4.64V69.6Z" fill="black"/>
<path d="M18.56 69.6H13.92V74.24H18.56V69.6Z" fill="black"/>
<path d="M41.76 69.6H37.12V74.24H41.76V69.6Z" fill="black"/>
<path d="M55.68 69.6H51.04V74.24H55.68V69.6Z" fill="black"/>
<path d="M74.24 69.6H69.6V74.24H74.24V69.6Z" fill="black"/>
<path d="M78.88 69.6H74.24V74.24H78.88V69.6Z" fill="black"/>
<path d="M92.8 69.6H88.16V74.24H92.8V69.6Z" fill="black"/>
<path d="M106.72 69.6H102.08V74.24H106.72V69.6Z" fill="black"/>
<path d="M116 69.6H111.36V74.24H116V69.6Z" fill="black"/>
<path d="M4.64 74.24H0V78.88H4.64V74.24Z" fill="black"/>
<path d="M13.92 74.24H9.27997V78.88H13.92V74.24Z" fill="black"/>
<path d="M27.84 74.24H23.2V78.88H27.84V74.24Z" fill="black"/>
<path d="M32.48 74.24H27.84V78.88H32.48V74.24Z" fill="black"/>
<path d="M37.12 74.24H32.48V78.88H37.12V74.24Z" fill="black"/>
<path d="M41.76 74.24H37.12V78.88H41.76V74.24Z" fill="black"/>
<path d="M46.4 74.24H41.76V78.88H46.4V74.24Z" fill="black"/>
<path d="M55.68 74.24H51.04V78.88H55.68V74.24Z" fill="black"/>
<path d="M60.32 74.24H55.68V78.88H60.32V74.24Z" fill="black"/>
<path d="M64.96 74.24H60.32V78.88H64.96V74.24Z" fill="black"/>
<path d="M69.6 74.24H64.96V78.88H69.6V74.24Z" fill="black"/>
<path d="M78.88 74.24H74.24V78.88H78.88V74.24Z" fill="black"/>
<path d="M83.52 74.24H78.88V78.88H83.52V74.24Z" fill="black"/>
<path d="M88.16 74.24H83.52V78.88H88.16V74.24Z" fill="black"/>
<path d="M92.8 74.24H88.16V78.88H92.8V74.24Z" fill="black"/>
<path d="M97.44 74.24H92.8V78.88H97.44V74.24Z" fill="black"/>
<path d="M106.72 74.24H102.08V78.88H106.72V74.24Z" fill="black"/>
<path d="M41.76 78.88H37.12V83.52H41.76V78.88Z" fill="black"/>
<path d="M60.32 78.88H55.68V83.52H60.32V78.88Z" fill="black"/>
<path d="M69.6 78.88H64.96V83.52H69.6V78.88Z" fill="black"/>
<path d="M78.88 78.88H74.24V83.52H78.88V78.88Z" fill="black"/>
<path d="M97.44 78.88H92.8V83.52H97.44V78.88Z" fill="black"/>
<path d="M106.72 78.88H102.08V83.52H106.72V78.88Z" fill="black"/>
<path d="M46.4 83.52H41.76V88.16H46.4V83.52Z" fill="black"/>
<path d="M51.04 83.52H46.4V88.16H51.04V83.52Z" fill="black"/>
<path d="M55.68 83.52H51.04V88.16H55.68V83.52Z" fill="black"/>
<path d="M64.96 83.52H60.32V88.16H64.96V83.52Z" fill="black"/>
<path d="M78.88 83.52H74.24V88.16H78.88V83.52Z" fill="black"/>
<path d="M88.16 83.52H83.52V88.16H88.16V83.52Z" fill="black"/>
<path d="M97.44 83.52H92.8V88.16H97.44V83.52Z" fill="black"/>
<path d="M102.08 83.52H97.44V88.16H102.08V83.52Z" fill="black"/>
<path d="M116 83.52H111.36V88.16H116V83.52Z" fill="black"/>
<path d="M46.4 88.16H41.76V92.8H46.4V88.16Z" fill="black"/>
<path d="M51.04 88.16H46.4V92.8H51.04V88.16Z" fill="black"/>
<path d="M74.24 88.16H69.6V92.8H74.24V88.16Z" fill="black"/>
<path d="M78.88 88.16H74.24V92.8H78.88V88.16Z" fill="black"/>
<path d="M97.44 88.16H92.8V92.8H97.44V88.16Z" fill="black"/>
<path d="M111.36 88.16H106.72V92.8H111.36V88.16Z" fill="black"/>
<path d="M116 88.16H111.36V92.8H116V88.16Z" fill="black"/>
<path d="M60.32 92.7999H55.68V97.4399H60.32V92.7999Z" fill="black"/>
<path d="M64.96 92.7999H60.32V97.4399H64.96V92.7999Z" fill="black"/>
<path d="M69.6 92.7999H64.96V97.4399H69.6V92.7999Z" fill="black"/>
<path d="M74.24 92.7999H69.6V97.4399H74.24V92.7999Z" fill="black"/>
<path d="M78.88 92.7999H74.24V97.4399H78.88V92.7999Z" fill="black"/>
<path d="M83.52 92.7999H78.88V97.4399H83.52V92.7999Z" fill="black"/>
<path d="M88.16 92.7999H83.52V97.4399H88.16V92.7999Z" fill="black"/>
<path d="M92.8 92.7999H88.16V97.4399H92.8V92.7999Z" fill="black"/>
<path d="M97.44 92.7999H92.8V97.4399H97.44V92.7999Z" fill="black"/>
<path d="M102.08 92.7999H97.44V97.4399H102.08V92.7999Z" fill="black"/>
<path d="M106.72 92.7999H102.08V97.4399H106.72V92.7999Z" fill="black"/>
<path d="M51.04 97.4401H46.4V102.08H51.04V97.4401Z" fill="black"/>
<path d="M55.68 97.4401H51.04V102.08H55.68V97.4401Z" fill="black"/>
<path d="M64.96 97.4401H60.32V102.08H64.96V97.4401Z" fill="black"/>
<path d="M69.6 97.4401H64.96V102.08H69.6V97.4401Z" fill="black"/>
<path d="M83.52 97.4401H78.88V102.08H83.52V97.4401Z" fill="black"/>
<path d="M88.16 97.4401H83.52V102.08H88.16V97.4401Z" fill="black"/>
<path d="M102.08 97.4401H97.44V102.08H102.08V97.4401Z" fill="black"/>
<path d="M111.36 97.4401H106.72V102.08H111.36V97.4401Z" fill="black"/>
<path d="M116 97.4401H111.36V102.08H116V97.4401Z" fill="black"/>
<path d="M51.04 102.08H46.4V106.72H51.04V102.08Z" fill="black"/>
<path d="M60.32 102.08H55.68V106.72H60.32V102.08Z" fill="black"/>
<path d="M64.96 102.08H60.32V106.72H64.96V102.08Z" fill="black"/>
<path d="M69.6 102.08H64.96V106.72H69.6V102.08Z" fill="black"/>
<path d="M78.88 102.08H74.24V106.72H78.88V102.08Z" fill="black"/>
<path d="M92.8 102.08H88.16V106.72H92.8V102.08Z" fill="black"/>
<path d="M106.72 102.08H102.08V106.72H106.72V102.08Z" fill="black"/>
<path d="M116 102.08H111.36V106.72H116V102.08Z" fill="black"/>
<path d="M46.4 106.72H41.76V111.36H46.4V106.72Z" fill="black"/>
<path d="M55.68 106.72H51.04V111.36H55.68V106.72Z" fill="black"/>
<path d="M60.32 106.72H55.68V111.36H60.32V106.72Z" fill="black"/>
<path d="M69.6 106.72H64.96V111.36H69.6V106.72Z" fill="black"/>
<path d="M78.88 106.72H74.24V111.36H78.88V106.72Z" fill="black"/>
<path d="M88.16 106.72H83.52V111.36H88.16V106.72Z" fill="black"/>
<path d="M92.8 106.72H88.16V111.36H92.8V106.72Z" fill="black"/>
<path d="M97.44 106.72H92.8V111.36H97.44V106.72Z" fill="black"/>
<path d="M116 106.72H111.36V111.36H116V106.72Z" fill="black"/>
<path d="M41.76 111.36H37.12V116H41.76V111.36Z" fill="black"/>
<path d="M55.68 111.36H51.04V116H55.68V111.36Z" fill="black"/>
<path d="M78.88 111.36H74.24V116H78.88V111.36Z" fill="black"/>
<path d="M88.16 111.36H83.52V116H88.16V111.36Z" fill="black"/>
<path d="M102.08 111.36H97.44V116H102.08V111.36Z" fill="black"/>
<path d="M116 111.36H111.36V116H116V111.36Z" fill="black"/>
<path d="M27.608 0H4.872H0V4.872V27.608V32.48H4.872H27.608H32.48V27.608V4.872V0H27.608ZM27.608 27.608H4.872V4.872H27.608V27.608Z" fill="black"/>
<path d="M111.128 0H88.392H83.52V4.872V27.608V32.48H88.392H111.128H116V27.608V4.872V0H111.128ZM111.128 27.608H88.392V4.872H111.128V27.608Z" fill="black"/>
<path d="M27.608 83.52H4.872H0V88.392V111.128V116H4.872H27.608H32.48V111.128V88.392V83.52H27.608ZM27.608 111.128H4.872V88.392H27.608V111.128Z" fill="black"/>
<path d="M23.2 9.28003H9.27997V23.2H23.2V9.28003Z" fill="black"/>
<path d="M106.72 9.28003H92.8V23.2H106.72V9.28003Z" fill="black"/>
<path d="M23.2 92.7999H9.27997V106.72H23.2V92.7999Z" fill="black"/>
</svg>
