<svg width="72" height="72" viewBox="0 0 72 72" fill="none" xmlns="http://www.w3.org/2000/svg">
<g clip-path="url(#clip0)">
<path d="M20.9678 34.574V3.20565C20.9678 1.43613 22.4039 0 24.1734 0H56.2299C57.9994 0 59.4355 1.43613 59.4355 3.20565V50.4355C59.4355 52.2071 57.9994 53.6411 56.2299 53.6411H24.1734C22.4039 53.6411 20.9678 52.2071 20.9678 50.4355V49.3669" stroke="#52AE30" stroke-width="2" stroke-linecap="round" stroke-linejoin="round"/>
<path opacity="0.5" d="M35.5 70.7375H33.7903" stroke="#52AE30" stroke-width="2" stroke-linecap="round" stroke-linejoin="round"/>
<path opacity="0.5" d="M30.371 70.738H22.63C15.1008 70.738 9 64.616 9 57.0605" stroke="#52AE30" stroke-width="2" stroke-linecap="round" stroke-linejoin="round"/>
<path opacity="0.3" fill-rule="evenodd" clip-rule="evenodd" d="M23.5322 4.75159C23.5322 3.64702 24.4277 2.75159 25.5322 2.75159H58.7821C60.5584 2.75159 62 4.19954 62 5.98364V50.2057C62 53.5194 59.3137 56.2057 56 56.2057H47.388C47.0605 54.7382 45.7504 53.6413 44.1842 53.6413H23.9668C23.9094 53.6413 23.8523 53.6396 23.7957 53.6365C23.6255 53.1922 23.5322 52.7098 23.5322 52.2057V48.8213C26.1303 46.8404 27.448 42.4144 27.448 42.4144H31.7422C33.8893 42.4144 36.0364 41.3316 36.0364 39.166V38.0832C36.0364 35.9176 33.8292 34.8348 31.7422 34.8348H25.3009C24.7691 34.8348 24.1714 34.868 23.5322 34.9496V4.75159ZM30.999 9.84277H53.999V15.8428H30.999V9.84277Z" fill="#52AE30"/>
<path fill-rule="evenodd" clip-rule="evenodd" d="M20.9678 50.6412C20.9678 52.298 22.311 53.6412 23.9678 53.6412H44.1853C45.9982 53.6412 47.4678 55.1108 47.4678 56.9237V56.9237C47.4678 58.7366 45.9982 60.2063 44.1853 60.2063H34.5218H31.0695H36.144C38.1081 60.2063 39.7002 61.7984 39.7002 63.7624V63.7624C39.7002 65.7264 38.1081 67.3186 36.144 67.3186H23.1549C17.2246 67.3186 12.4194 62.472 12.4194 56.4906V49.2705C12.4194 37.0003 21.0078 34.8347 25.302 34.8347C27.3653 34.8347 30.3756 34.8347 31.7433 34.8347C33.8302 34.8347 36.0375 35.9175 36.0375 38.0831V39.1659C36.0375 41.3315 33.8904 42.5283 31.7433 42.5283H27.4491C27.4491 42.5283 25.262 49.367 20.9678 49.367V50.6412Z" stroke="#52AE30" stroke-width="2" stroke-linecap="round" stroke-linejoin="round"/>
<rect x="29" y="6.84277" width="23" height="6" stroke="#52AE30" stroke-width="2" stroke-linecap="round" stroke-linejoin="round"/>
</g>
<defs>
<clipPath id="clip0">
<rect width="72" height="72" fill="white"/>
</clipPath>
</defs>
</svg>
