<svg width="18" height="19" viewBox="0 0 18 19" fill="none" xmlns="http://www.w3.org/2000/svg">
<path d="M17.4867 13.0228L13.5491 11.3181C13.3809 11.2456 13.1939 11.2304 13.0164 11.2746C12.8389 11.3188 12.6804 11.42 12.5647 11.5631L10.8209 13.7154C8.08423 12.4119 5.88181 10.187 4.59149 7.42235L6.72199 5.66078C6.86391 5.54417 6.96436 5.38403 7.00813 5.2046C7.0519 5.02517 7.03661 4.83621 6.96457 4.66634L5.27705 0.688594C5.19798 0.505478 5.05815 0.35597 4.88165 0.265851C4.70516 0.175731 4.50307 0.150648 4.31023 0.194926L0.653918 1.0473C0.467997 1.09067 0.302119 1.19642 0.183355 1.3473C0.064592 1.49817 -4.28284e-05 1.68525 2.12917e-08 1.87801C2.12917e-08 10.9878 7.30911 18.3573 16.3128 18.3573C16.5037 18.3574 16.6889 18.2921 16.8384 18.1721C16.9878 18.0522 17.0925 17.8845 17.1355 17.6967L17.9792 14.003C18.0228 13.8073 17.9974 13.6023 17.9075 13.4234C17.8176 13.2445 17.6688 13.1028 17.4867 13.0228Z" fill="#6E7482"/>
</svg>
