<svg width="152" height="38" viewBox="0 0 152 38" fill="none" xmlns="http://www.w3.org/2000/svg">
<path fill-rule="evenodd" clip-rule="evenodd" d="M0 14.5007C0 6.47903 6.47903 0 14.4493 0V5.24493C9.35859 5.24493 5.1935 9.41001 5.1935 14.5007C5.1935 19.5913 9.35859 23.7564 14.4493 23.7564C19.5399 23.7564 23.705 19.6428 23.705 14.4493H28.9499C28.9499 22.4709 22.4709 28.9499 14.4493 28.9499C6.47903 29.0014 0 22.4709 0 14.5007Z" fill="white"/>
<path d="M8.07324 14.5008C8.07324 10.9528 10.9528 8.07324 14.5008 8.07324C18.0489 8.07324 20.9285 10.9528 20.9285 14.5008C20.9285 18.0489 18.0489 20.9284 14.5008 20.9284C10.9528 20.9284 8.07324 18.0489 8.07324 14.5008Z" fill="white"/>
<path d="M18.9741 6.32486C18.9741 4.26803 20.6196 2.62256 22.6764 2.62256C24.7333 2.62256 26.3787 4.26803 26.3787 6.32486C26.3787 8.38169 24.7333 10.0272 22.6764 10.0272C20.6196 10.0272 18.9741 8.38169 18.9741 6.32486Z" fill="white"/>
<path d="M136.265 9.77013L135.802 12.0326C134.722 16.9176 134.311 18.5117 133.385 23.3967L133.18 23.5509L130.197 23.6538L130.043 23.4481L131.226 18.4088L131.586 16.7634C130.3 16.7119 129.015 16.7119 127.729 16.7119C126.752 16.7119 125.981 16.7119 125.21 16.7634C124.798 18.7174 124.387 20.4657 123.873 23.3967L123.667 23.5509L120.685 23.6538L120.53 23.4481L121.713 18.4088L122.176 16.1977C122.947 12.7525 123.101 11.9812 123.564 8.79313L123.77 8.58745C125.158 8.43319 125.467 8.33035 126.855 8.07324L127.009 8.27893L126.701 9.71871L126.238 11.9812L125.775 14.1409C126.855 14.1409 127.935 14.1923 129.015 14.1923C130.146 14.1923 130.917 14.1923 132.151 14.1409C132.563 12.2898 132.717 11.2613 133.077 8.84456L133.283 8.63887C134.671 8.48461 134.98 8.38177 136.368 8.12466L136.522 8.33035L136.265 9.77013Z" fill="white"/>
<path d="M99.2423 16.3003C99.448 15.4262 99.6023 14.6035 99.6023 13.7807C99.6023 10.7983 97.6997 10.3355 96.6199 10.3355C91.992 10.3355 91.4264 17.483 91.4264 18.5629C91.4264 20.9282 92.8147 21.9566 94.4088 21.9566C97.5454 21.9566 98.7281 18.7171 99.2423 16.3003ZM102.276 17.2259C101.608 19.7455 99.8594 24.1163 94.3059 24.1163C90.3979 24.1163 88.2383 22.1109 88.2383 18.1001C88.2383 17.5859 88.2897 17.0202 88.3411 16.4032C88.3411 16.2489 88.3925 16.0947 88.3925 15.9404C89.5238 9.35854 92.4034 3.08519 98.7281 3.03377C99.5509 3.03377 101.248 2.93093 102.43 2.67383L102.019 5.29629C100.836 5.60482 98.9852 5.75908 97.9568 5.75908C96.6199 5.75908 95.6943 6.27329 95.0772 6.89034C94.7687 7.19886 94.5116 7.50739 94.3059 7.81591C94.1002 8.12444 93.9974 8.38154 93.8946 8.58722C94.7173 8.33012 95.6429 8.17586 96.6713 8.17586C100.528 8.17586 102.79 10.3355 102.79 14.0893C102.739 15.1177 102.585 16.1975 102.276 17.2259Z" fill="white"/>
<path fill-rule="evenodd" clip-rule="evenodd" d="M114.514 19.7972C114.206 20.0543 113.897 20.3628 113.537 20.5685C112.766 21.0313 111.789 21.237 111.018 21.237C108.344 21.237 107.624 18.9745 107.624 17.5861C107.624 17.4318 107.675 13.6781 110.761 11.5699C112.509 10.3872 114.36 10.3358 115.337 10.3358C115.8 10.3358 116.211 10.3872 116.674 10.3872L114.514 19.7972ZM120.119 8.38177L119.965 8.12466L115.954 8.07324C113.28 8.07324 109.475 8.22751 106.801 11.4156C105.567 12.8554 104.487 15.375 104.487 17.6889C104.487 21.3398 106.904 23.4481 109.886 23.4481C112.355 23.4481 113.64 22.3682 114.154 21.9569L113.949 23.1395L114.103 23.3452L116.828 23.2938L117.034 23.0881C117.6 19.5915 117.805 18.5117 118.834 13.9866L120.119 8.38177Z" fill="white"/>
<path fill-rule="evenodd" clip-rule="evenodd" d="M47.3588 15.632C46.7931 18.203 46.1761 18.9743 45.8676 19.3857C45.3534 20.0027 44.6335 20.5169 43.7593 20.5169C42.7823 20.5169 42.011 20.0542 41.7025 19.1286C41.5996 18.9229 41.5482 18.563 41.5482 17.8431C41.5482 16.5061 42.1653 13.2152 43.2451 11.7754C43.5536 11.4155 44.2735 10.5927 45.6105 10.5927C47.3073 10.5927 47.6673 12.0839 47.6673 13.1638C47.6673 14.0893 47.513 14.9121 47.3588 15.632ZM52.1409 16.7632C52.398 15.7862 52.5009 14.8092 52.5009 13.8322C52.5009 12.0839 52.1409 10.4385 50.6497 9.10152C49.2613 7.86742 47.4102 7.45605 45.6105 7.45605C38.0516 7.45605 36.6118 14.4493 36.6118 17.1232C36.6118 19.2828 37.2289 20.8769 38.5144 22.0082C39.9028 23.2423 41.9596 23.4994 43.4508 23.4994C45.6619 23.4994 47.5645 23.0366 49.2099 21.6482C50.7525 20.5169 51.6781 18.6658 52.1409 16.7632Z" fill="white"/>
<path d="M63.9675 11.518H63.659C63.4019 12.7007 63.0933 14.0377 62.5791 16.1459L62.1164 18.3056C61.6021 20.7738 61.4993 21.3908 61.1908 23.4477L60.9851 23.6019L55.9459 23.7048L55.7916 23.4991C56.6657 20.0539 56.82 19.3854 57.6942 15.6831L58.0027 14.2433C58.2598 13.0607 58.4141 12.2893 58.5683 11.5695H58.4141H56.82L53.4262 11.6723L53.272 11.4152L54.249 7.96999L54.5061 7.81573H64.4303L69.4695 7.71289L69.6238 7.86715L68.6982 11.3123L68.4411 11.518L65.5615 11.4152H63.9675V11.518Z" fill="white"/>
<path d="M81.2447 11.4666L75.6912 11.518C75.6912 11.518 75.0228 13.7291 74.4057 16.1973C73.7887 18.6655 73.1202 21.3908 72.7088 23.3962L72.5031 23.5505L67.7724 23.6533L67.6182 23.4477C68.6466 20.0025 68.8523 19.334 69.8293 15.6317L70.1892 14.1919C70.4977 12.9578 70.7034 12.1865 70.8577 11.4152L71.6804 7.96999L71.8861 7.81573H81.4504L86.4896 7.71289L86.6953 7.86715C86.6953 7.86715 85.7183 12.6493 85.1012 15.8374C84.4842 19.0769 83.8157 23.2934 83.8157 23.2934L83.61 23.4477L78.6736 23.5505L78.5194 23.3448C79.2907 19.9511 79.8563 17.4314 80.2677 15.5289C80.7819 13.6777 81.039 12.2893 81.2447 11.4666Z" fill="white"/>
<path d="M142.179 14.5007C142.898 13.8836 143.258 13.5237 144.235 12.5981C145.264 11.6211 147.732 9.05009 148.195 8.53588L148.503 8.38162H151.846L151.948 8.63872C151.64 8.89582 151.486 8.99867 150.354 10.0271C149.892 10.387 149.583 10.6956 149.017 11.2098L145.212 14.7064L149.737 23.3451L149.583 23.6022L146.344 23.705L146.087 23.5508C145.315 21.751 145.11 21.3397 144.081 19.18L142.024 15.0149C141.407 17.8945 140.996 19.6942 140.276 23.4479L140.07 23.6022L137.088 23.705L136.934 23.4993L138.116 18.4601L138.579 16.249C139.35 12.8038 139.505 12.0325 139.967 8.8444L140.173 8.63872C141.561 8.48446 141.87 8.38162 143.258 8.12451L143.413 8.3302L143.104 9.76998L142.641 12.0325L142.179 14.5007Z" fill="white"/>
<path d="M37.2803 26.79H41.394L41.2397 27.767H38.3087L38.0002 29.6182H38.8229C39.5942 29.6182 40.2113 29.7724 40.6227 30.081C41.034 30.3895 41.2397 30.8523 41.2397 31.4693C41.2397 32.035 41.0854 32.5492 40.8283 32.9605C40.5712 33.3719 40.2113 33.7319 39.6971 33.9375C39.1829 34.1432 38.6687 34.2975 38.0002 34.2975H35.9434L37.2803 26.79ZM38.103 33.3719C38.7201 33.3719 39.2343 33.2176 39.5428 32.9091C39.8513 32.6006 40.057 32.1892 40.057 31.675C40.057 31.2637 39.9542 31.0065 39.7485 30.8523C39.5428 30.698 39.1829 30.5952 38.7201 30.5952H37.8459L37.3317 33.3719H38.103Z" fill="white"/>
<path d="M42.3193 33.9378C42.1136 33.6293 42.0107 33.1665 42.0107 32.5494C42.0107 31.8295 42.165 31.1611 42.4221 30.5954C42.6792 30.0298 43.0906 29.567 43.5534 29.2071C44.0162 28.8471 44.5818 28.6929 45.1988 28.6929C45.4559 28.6929 45.7645 28.6929 46.073 28.7443C46.4329 28.7957 46.7415 28.8471 47.05 28.95L46.1244 34.2977H45.1988L45.2503 33.4236H45.1988C44.6846 34.0921 44.0162 34.4006 43.2448 34.4006C42.8335 34.4006 42.525 34.2463 42.3193 33.9378ZM44.4275 33.2693C44.6846 33.0636 44.8903 32.858 45.096 32.5494C45.3017 32.2409 45.4045 31.9324 45.4559 31.5724L45.7645 29.7727C45.5588 29.7213 45.3531 29.7213 45.1474 29.7213C44.7361 29.7213 44.4275 29.8241 44.119 30.0812C43.8105 30.3383 43.5534 30.6469 43.3991 31.1096C43.2448 31.5724 43.142 32.0352 43.142 32.5494C43.142 33.2693 43.3477 33.6293 43.7076 33.6293C43.9133 33.5264 44.1704 33.4236 44.4275 33.2693Z" fill="white"/>
<path d="M53.0149 28.8467L52.0379 34.2973H50.9581L51.3695 31.9319H49.2612L48.8499 34.3487H47.77L48.747 28.8981H49.8269L49.4155 31.0578H51.5237L51.9351 28.8467H53.0149Z" fill="white"/>
<path d="M56.4605 31.5209L58.3631 34.2976H57.0776L55.9977 32.6522L55.3292 31.6752L55.2264 32.3436C55.2264 32.4465 55.175 32.6007 55.1236 32.8578L54.8665 34.349H53.7866L54.7636 28.8984H55.8435L55.5864 30.3382C55.5349 30.4925 55.5349 30.6982 55.4835 31.0067L55.4321 31.3152C55.7406 31.0067 56.0491 30.6982 56.3062 30.4411L57.8489 28.8984H59.2372L56.4605 31.5209Z" fill="white"/>
<path d="M61.808 34.0921C61.4995 33.835 61.3452 33.475 61.3452 33.0122C61.3452 32.498 61.4995 32.0352 61.8594 31.7781C62.2194 31.4696 62.785 31.2125 63.5563 31.0068C63.8648 30.904 64.1219 30.8011 64.2762 30.6469C64.4305 30.4926 64.5333 30.3383 64.5333 30.1327C64.5333 29.927 64.4819 29.8241 64.3276 29.7213C64.1734 29.6184 63.9677 29.567 63.6592 29.567C63.1449 29.567 62.6822 29.6699 62.2194 29.927L62.3736 29.0014C62.5793 28.8986 62.8364 28.8471 63.0935 28.7957C63.3506 28.7443 63.6592 28.6929 63.9163 28.6929C64.4305 28.6929 64.8418 28.7957 65.1504 29.0528C65.4589 29.3099 65.6131 29.6184 65.6131 30.0812C65.6131 30.544 65.4589 30.904 65.2018 31.1611C64.8933 31.4182 64.4819 31.6239 63.8648 31.7781C63.402 31.9324 63.0421 32.0352 62.785 32.2409C62.5793 32.3952 62.4765 32.6523 62.4765 32.9094C62.4765 33.3208 62.785 33.5779 63.4535 33.5779C63.9677 33.5779 64.4819 33.475 64.9447 33.2179L64.7904 34.1435C64.2762 34.3492 63.762 34.452 63.1449 34.452C62.5793 34.452 62.1165 34.3492 61.808 34.0921Z" fill="white"/>
<path d="M66.7959 33.9378C66.4874 33.5779 66.2817 33.0636 66.2817 32.3438C66.2817 31.6239 66.3846 31.0068 66.6417 30.4412C66.8988 29.8756 67.2587 29.4642 67.6701 29.1557C68.1329 28.8471 68.6471 28.6929 69.2127 28.6929C69.8812 28.6929 70.344 28.8986 70.6525 29.2585C70.961 29.6184 71.1667 30.1327 71.1667 30.8525C71.1667 31.5724 71.0639 32.1895 70.8068 32.7551C70.5497 33.3207 70.1897 33.7321 69.7784 34.0406C69.367 34.3492 68.8014 34.5034 68.2357 34.5034C67.5673 34.452 67.1045 34.2977 66.7959 33.9378ZM69.2127 33.2179C69.4698 32.9608 69.6755 32.6523 69.8298 32.2409C69.984 31.8295 70.0355 31.3668 70.0355 30.8525C70.0355 30.4412 69.984 30.0812 69.8298 29.927C69.6755 29.7727 69.4698 29.6184 69.1613 29.6184C68.8528 29.6184 68.5443 29.7213 68.2872 29.9784C68.0301 30.2355 67.8244 30.544 67.6701 30.9554C67.5158 31.3668 67.4644 31.8295 67.4644 32.3438C67.4644 32.7551 67.5158 33.0636 67.6701 33.2693C67.8244 33.475 68.03 33.5779 68.3386 33.5779C68.6471 33.5779 68.9556 33.475 69.2127 33.2179Z" fill="white"/>
<path d="M72.9663 28.8471H73.8918L73.8404 29.7213H73.8918C74.1489 29.4128 74.4575 29.1557 74.766 28.95C75.0745 28.7443 75.4345 28.6929 75.743 28.6929C76.4115 28.6929 76.7714 29.0528 76.8228 29.7213H76.8742C77.1313 29.3613 77.4399 29.1042 77.7998 28.95C78.1083 28.7957 78.4683 28.6929 78.7768 28.6929C79.1368 28.6929 79.3939 28.7957 79.5995 29.0014C79.8052 29.2071 79.9081 29.567 79.9081 29.9784C79.9081 30.1841 79.9081 30.3898 79.8566 30.5954L79.1882 34.2463H78.1083L78.7254 30.8525C78.7768 30.5954 78.7768 30.3383 78.7768 30.1327C78.7768 29.927 78.7254 29.7727 78.674 29.7213C78.6225 29.6699 78.5197 29.6184 78.3654 29.6184C78.1083 29.6184 77.8512 29.7213 77.6456 29.8756C77.3884 30.0812 77.1828 30.3383 77.0285 30.6469C76.8228 30.9554 76.72 31.3153 76.6686 31.7267L76.2058 34.2977H75.1259L75.743 30.904C75.7944 30.6469 75.7944 30.3898 75.7944 30.1841C75.7944 29.9784 75.743 29.8241 75.6916 29.7213C75.6401 29.6184 75.5373 29.6184 75.383 29.6184C75.1259 29.6184 74.8688 29.7213 74.6631 29.8756C74.406 30.0812 74.2004 30.3383 74.0461 30.6469C73.8918 30.9554 73.7376 31.3153 73.6861 31.7267L73.2234 34.2977H71.9893L72.9663 28.8471Z" fill="white"/>
<path d="M81.3477 33.9378C81.0392 33.5779 80.8335 33.0636 80.8335 32.3438C80.8335 31.6239 80.9363 31.0068 81.1934 30.4412C81.4505 29.8756 81.8105 29.4642 82.2219 29.1557C82.6846 28.8471 83.1989 28.6929 83.7645 28.6929C84.433 28.6929 84.8957 28.8986 85.2043 29.2585C85.5128 29.6184 85.7185 30.1327 85.7185 30.8525C85.7185 31.5724 85.6156 32.1895 85.3585 32.7551C85.1014 33.3207 84.7415 33.7321 84.3301 34.0406C83.8673 34.3492 83.3531 34.5034 82.7875 34.5034C82.119 34.452 81.6562 34.2977 81.3477 33.9378ZM83.7645 33.2179C84.0216 32.9608 84.2273 32.6523 84.3815 32.2409C84.5358 31.8295 84.5872 31.3668 84.5872 30.8525C84.5872 30.4412 84.5358 30.0812 84.3815 29.927C84.2273 29.7727 84.0216 29.6184 83.7131 29.6184C83.4045 29.6184 83.096 29.7213 82.8389 29.9784C82.5818 30.2355 82.3761 30.544 82.2219 30.9554C82.0676 31.3668 82.0162 31.8295 82.0162 32.3438C82.0162 32.7551 82.0676 33.0636 82.2219 33.2693C82.3761 33.475 82.5818 33.5779 82.8903 33.5779C83.1989 33.5779 83.5074 33.475 83.7645 33.2179Z" fill="white"/>
<path d="M90.9124 31.7267C91.0667 31.9324 91.1181 32.1895 91.1181 32.498C91.1181 32.9094 91.0153 33.2693 90.7582 33.5264C90.5525 33.835 90.244 34.0406 89.8326 34.1949C89.4212 34.3492 89.0099 34.452 88.4957 34.452C87.7758 34.452 87.1073 34.3492 86.4902 34.0921L87.3644 29.1042C87.6729 29.0014 88.0329 28.8986 88.3928 28.7957C88.7528 28.7443 89.1127 28.6929 89.4727 28.6929C90.0897 28.6929 90.5525 28.7957 90.861 29.0014C91.1695 29.2071 91.3238 29.5156 91.3238 29.8756C91.3238 30.1841 91.221 30.4926 91.0667 30.7497C90.9124 31.0068 90.6553 31.2125 90.3982 31.3668C90.6039 31.4182 90.7582 31.5724 90.9124 31.7267ZM89.5755 33.3722C89.8326 33.2179 89.9869 32.9608 89.9869 32.6009C89.9869 32.3438 89.9354 32.1381 89.7812 32.0352C89.6269 31.9324 89.3698 31.8295 89.0613 31.8295C88.8042 31.8295 88.4442 31.881 88.0329 31.9324L87.7758 33.475C87.9814 33.5779 88.29 33.6293 88.6499 33.6293C89.0099 33.6293 89.3184 33.5264 89.5755 33.3722ZM88.3928 29.7213L88.1357 31.2125L89.1641 31.0582C89.5241 31.0068 89.7812 30.904 89.9354 30.7497C90.0897 30.5954 90.1925 30.3898 90.1925 30.1327C90.1925 29.927 90.1411 29.7727 89.9869 29.7213C89.8326 29.6184 89.6269 29.567 89.3698 29.567C89.0613 29.567 88.7013 29.6184 88.3928 29.7213Z" fill="white"/>
<path d="M93.0717 34.4001C92.8146 34.3487 92.4547 34.2459 92.0947 34.0916L93.0203 28.8467H94.1001L93.7916 30.595C93.7916 30.6464 93.7402 30.8007 93.6888 31.0064C93.8945 30.7493 94.1516 30.4921 94.4601 30.3379C94.7686 30.1836 95.0771 30.0808 95.4371 30.0808C95.8999 30.0808 96.2084 30.235 96.4655 30.4921C96.6712 30.7493 96.8254 31.1092 96.8254 31.6234C96.8254 32.189 96.7226 32.6518 96.4655 33.1146C96.2084 33.526 95.8999 33.8859 95.4371 34.143C95.0257 34.4001 94.5115 34.503 93.9459 34.503C93.6373 34.4516 93.3288 34.4516 93.0717 34.4001ZM94.8714 33.2689C95.1286 33.1146 95.2828 32.8575 95.4371 32.549C95.5913 32.2405 95.6428 31.9319 95.6428 31.6234C95.6428 31.4177 95.5913 31.212 95.4885 31.0578C95.3857 30.9035 95.2314 30.8521 95.0257 30.8521C94.7686 30.8521 94.5629 30.9549 94.3058 31.1092C94.0487 31.2635 93.8945 31.5206 93.7402 31.7777C93.5859 32.0348 93.4831 32.3433 93.4317 32.6004L93.2774 33.3717C93.4317 33.4231 93.6888 33.4746 93.9973 33.4746C94.3572 33.5774 94.6143 33.4746 94.8714 33.2689ZM98.4195 28.8467H99.5508L98.5737 34.2973H97.4939L98.4195 28.8467Z" fill="white"/>
<path d="M101.711 31.3665L100.631 28.8468H101.762L102.225 29.9781C102.328 30.1838 102.379 30.3895 102.482 30.6466L102.636 30.3895C102.739 30.2352 102.842 30.0809 102.893 29.9781L103.716 28.7954H105.002L102.996 31.3665L104.23 34.246H103.099L102.43 32.6006L102.225 32.0863L101.916 32.5491L100.631 34.246H99.3452L101.711 31.3665Z" fill="white"/>
<path d="M112.149 29.1557C112.355 29.4642 112.509 29.8756 112.509 30.4412C112.509 31.1611 112.355 31.881 112.097 32.4466C111.84 33.0636 111.48 33.5264 111.018 33.8864C110.555 34.2463 110.041 34.4006 109.475 34.4006C109.167 34.4006 108.858 34.3492 108.498 34.2463L108.087 36.5603H107.007L108.344 28.8471H109.269L109.218 29.7213H109.269C109.835 29.0528 110.452 28.6929 111.172 28.6929C111.635 28.7443 111.943 28.8471 112.149 29.1557ZM110.401 33.1665C110.709 32.9094 110.966 32.5494 111.121 32.1381C111.275 31.6753 111.378 31.2125 111.378 30.6983C111.378 30.0298 111.172 29.6699 110.761 29.6699C110.503 29.6699 110.246 29.7727 109.989 29.927C109.732 30.1327 109.526 30.3383 109.321 30.6469C109.115 30.9554 109.012 31.3153 108.961 31.6753L108.652 33.4236C108.858 33.5264 109.064 33.5264 109.321 33.5264C109.732 33.5779 110.092 33.4236 110.401 33.1665Z" fill="white"/>
<path d="M116.931 31.8295C116.314 32.2409 115.44 32.3952 114.309 32.3952C114.309 32.7551 114.411 33.0636 114.617 33.2693C114.823 33.475 115.131 33.5779 115.491 33.5779C115.8 33.5779 116.057 33.5264 116.263 33.475C116.468 33.4236 116.725 33.3207 116.931 33.2179L116.777 34.1435C116.365 34.2977 115.851 34.4006 115.234 34.4006C114.566 34.4006 114.052 34.1949 113.692 33.835C113.332 33.475 113.126 32.9608 113.126 32.2409C113.126 31.5724 113.28 30.9554 113.537 30.4412C113.794 29.8756 114.154 29.4642 114.617 29.1557C115.08 28.8471 115.594 28.6929 116.16 28.6929C116.674 28.6929 117.085 28.7957 117.342 29.0528C117.6 29.3099 117.754 29.6699 117.754 30.1327C117.857 30.8525 117.548 31.4182 116.931 31.8295ZM115.388 29.8755C115.131 30.0812 114.874 30.2869 114.72 30.5954C114.566 30.904 114.411 31.2639 114.36 31.6239C115.131 31.6239 115.748 31.4696 116.16 31.2125C116.571 30.9554 116.777 30.6469 116.777 30.1841C116.777 29.7727 116.571 29.567 116.16 29.567C115.954 29.6184 115.646 29.6699 115.388 29.8755Z" fill="white"/>
<path d="M125.621 34.2974H124.696L124.747 33.4233H124.696C124.438 33.7318 124.13 33.9889 123.821 34.1946C123.513 34.4003 123.153 34.4517 122.844 34.4517C122.176 34.4517 121.816 34.0918 121.765 33.4233H121.713C121.456 33.7832 121.148 34.0403 120.788 34.1946C120.479 34.3489 120.119 34.4517 119.811 34.4517C119.451 34.4517 119.142 34.3489 118.936 34.1432C118.731 33.9375 118.628 33.5775 118.628 33.1662C118.628 32.9605 118.628 32.7548 118.679 32.4977L119.348 28.8468H120.479L119.862 32.2406C119.811 32.4977 119.811 32.7548 119.811 32.9605C119.811 33.1662 119.862 33.3204 119.913 33.4233C119.965 33.5261 120.068 33.5261 120.222 33.5261C120.479 33.5261 120.736 33.4233 120.993 33.269C121.25 33.0633 121.456 32.8062 121.61 32.4977C121.816 32.1892 121.919 31.8292 121.97 31.4179L122.433 28.8468H123.513L122.947 32.2406C122.896 32.4977 122.896 32.7548 122.896 32.9605C122.896 33.1662 122.947 33.3204 122.999 33.3719C123.05 33.4747 123.153 33.4747 123.307 33.4747C123.564 33.4747 123.821 33.3719 124.079 33.2176C124.336 33.0119 124.541 32.7548 124.696 32.4463C124.901 32.1378 125.004 31.7778 125.056 31.3665L125.518 28.7954H126.65L125.621 34.2974Z" fill="white"/>
<path d="M131.072 31.8295C130.455 32.2409 129.581 32.3952 128.449 32.3952C128.449 32.7551 128.552 33.0636 128.758 33.2693C128.963 33.475 129.272 33.5779 129.632 33.5779C129.94 33.5779 130.198 33.5264 130.403 33.475C130.609 33.4236 130.866 33.3207 131.072 33.2179L130.917 34.1435C130.506 34.2977 129.992 34.4006 129.375 34.4006C128.706 34.4006 128.192 34.1949 127.832 33.835C127.472 33.475 127.267 32.9608 127.267 32.2409C127.267 31.5724 127.421 30.9554 127.678 30.4412C127.935 29.8756 128.295 29.4642 128.758 29.1557C129.221 28.8471 129.735 28.6929 130.3 28.6929C130.815 28.6929 131.226 28.7957 131.483 29.0528C131.74 29.3099 131.894 29.6699 131.894 30.1327C131.997 30.8525 131.689 31.4182 131.072 31.8295ZM129.529 29.8755C129.272 30.0812 129.015 30.2869 128.861 30.5954C128.706 30.904 128.552 31.2639 128.501 31.6239C129.272 31.6239 129.889 31.4696 130.3 31.2125C130.712 30.9554 130.917 30.6469 130.917 30.1841C130.917 29.7727 130.712 29.567 130.3 29.567C130.043 29.6184 129.786 29.6699 129.529 29.8755Z" fill="white"/>
<path d="M137.808 28.8468L136.831 34.2974H135.751L136.162 31.9321H134.054L133.643 34.2974H132.563L133.54 28.8468H134.62L134.208 31.0065H136.317L136.728 28.7954H137.808V28.8468Z" fill="white"/>
<path d="M139.042 34.143C138.836 33.9373 138.733 33.5774 138.733 33.166C138.733 32.9603 138.733 32.7547 138.785 32.4976L139.453 28.8467H140.533L139.916 32.2919C139.865 32.549 139.865 32.7547 139.865 32.9603C139.865 33.166 139.916 33.3203 139.968 33.4231C140.07 33.526 140.173 33.5774 140.327 33.5774C140.739 33.5774 141.15 33.3717 141.51 32.9603C141.87 32.549 142.076 32.0348 142.179 31.4177L142.641 28.8467H143.721L142.744 34.2973H141.819L141.921 33.4231H141.87C141.613 33.7831 141.304 33.9888 140.996 34.1944C140.687 34.4001 140.327 34.4516 139.865 34.4516C139.505 34.4516 139.248 34.3487 139.042 34.143Z" fill="white"/>
<path d="M144.904 34.1433C144.699 33.9376 144.596 33.5776 144.596 33.1663C144.596 32.9606 144.596 32.7549 144.647 32.4978L145.316 28.8469H146.395L145.778 32.2921C145.727 32.5492 145.727 32.7549 145.727 32.9606C145.727 33.1663 145.778 33.3205 145.83 33.4234C145.933 33.5262 146.035 33.5776 146.19 33.5776C146.601 33.5776 147.012 33.3719 147.372 32.9606C147.732 32.5492 147.938 32.035 148.041 31.4179L148.504 28.8469H149.584L148.607 34.2975H147.681L147.732 33.4234H147.681C147.424 33.7833 147.115 33.989 146.807 34.1947C146.498 34.4004 146.138 34.4518 145.676 34.4518C145.418 34.4518 145.11 34.3489 144.904 34.1433ZM146.447 27.7156L146.55 26.9443C146.91 27.15 147.321 27.2014 147.784 27.2014C148.247 27.2014 148.658 27.0986 149.018 26.9443L148.915 27.7156C148.555 27.8699 148.144 27.9728 147.63 27.9728C147.167 28.0242 146.755 27.9213 146.447 27.7156Z" fill="white"/>
</svg>
