<svg width="48" height="48" viewBox="0 0 48 48" fill="none" xmlns="http://www.w3.org/2000/svg">
<path fill-rule="evenodd" clip-rule="evenodd" d="M43.8724 47.1278H11.1915C9.50232 47.1278 8.12769 45.7491 8.12769 44.0538V33.8104H10.1702V44.0558C10.1702 44.6206 10.6278 45.0802 11.1915 45.0802H43.8724C44.4361 45.0802 44.8936 44.6206 44.8936 44.0558V13.7443L33.2368 2.0497H11.1915C10.6278 2.0497 10.1702 2.50826 10.1702 3.07404V21.5152H8.12769V3.07404C8.12769 1.37872 9.50232 0 11.1915 0H33.6596C33.9302 0 34.1907 0.107234 34.3816 0.300255L46.637 12.5944C46.7322 12.6896 46.8076 12.8026 46.859 12.9271C46.9103 13.0515 46.9366 13.1849 46.9362 13.3195V44.0548C46.9362 45.7491 45.5616 47.1278 43.8724 47.1278Z" fill="#52AE30"/>
<path fill-rule="evenodd" clip-rule="evenodd" d="M45.9148 14.3428H33.6595C33.0957 14.3428 32.6382 13.8853 32.6382 13.3185V2.04871H34.6807V12.2942H45.9148V14.3428Z" fill="#52AE30"/>
<mask id="mask0" mask-type="alpha" maskUnits="userSpaceOnUse" x="2" y="0" width="45" height="48">
<path d="M2 47.1278H46.9362V0H2V47.1278Z" fill="white"/>
</mask>
<g mask="url(#mask0)">
<path fill-rule="evenodd" clip-rule="evenodd" d="M4.04255 33.8095H36.7234V22.5397H4.04255V33.8095ZM37.7447 35.8582H3.02128C2.45753 35.8582 2 35.4006 2 34.8338V21.5154C2 20.9485 2.45753 20.49 3.02128 20.49H37.7447C38.3084 20.49 38.766 20.9485 38.766 21.5154V34.8328C38.766 35.4006 38.3084 35.8582 37.7447 35.8582Z" fill="#52AE30"/>
</g>
<path d="M8.12769 32.6809V25.532H10.4552C12.2853 25.532 13.517 26.0661 13.517 27.6358C13.517 29.1391 12.2976 29.8479 10.5042 29.8479H9.16224V32.6809H8.12769ZM9.16122 29.1065H10.3806C11.8002 29.1065 12.4845 28.6489 12.4845 27.6358C12.4845 26.6002 11.7624 26.2622 10.3306 26.2622H9.16122V29.1065ZM15.1725 32.6809V25.532H17.214C19.7284 25.532 21.0724 26.8065 21.0724 29.0738C21.0724 31.3512 19.7284 32.6809 17.263 32.6809H15.1725ZM16.206 31.9395H17.1394C19.0431 31.9395 20.0021 30.8825 20.0021 29.0738C20.0021 27.2763 19.0431 26.2734 17.1394 26.2734H16.206V31.9395ZM22.8269 32.6809V25.532H27.5319V26.2949H23.8605V28.7143H26.9723V29.4772H23.8605V32.6809H22.8269Z" fill="#52AE30"/>
</svg>
